#N canvas 0 22 817 672 10;
#X obj 151 -11 r \$0-presets;
#N canvas 123 23 419 644 init_macro 0;
#X obj 30 466 list;
#X obj 93 412 * 10;
#X obj 30 319 t a b;
#X obj 11 26 bng 15 250 50 0 empty empty empty 17 7 0 10 -262144 -1
-1;
#X obj 57 381 t f f f f;
#X obj 128 403 * 2;
#X obj 128 423 - 0;
#X obj 57 404 * 2;
#X obj 57 424 - 1;
#X obj 30 543 s pd-\$0-receivers;
#X obj 57 361 f;
#X obj 80 361 + 1;
#X msg 45 342 0;
#X obj 57 447 pack 0 0 \$0 0 0 0;
#X msg 30 486 obj \$3 \$6 r \$4-\$1# \, obj \$3 \$7 lprepend \$1 \,
connect \$2 0 \$5 0 \, connect \$5 0 0 0;
#X obj 156 429 + 20;
#X obj 156 398 * 40;
#X msg 45 521 clear \, obj -10 0 outlet \,;
#X obj 11 44 t b b b b;
#X obj 11 608 s pd-\$0-receivers_shell;
#X msg 11 585 connect 1 0 0 0;
#X msg 30 64 title \, mode \, portamento \, lo_bw \, polyphony \, ext_mod
\, ext_filter_freq \, ext_filter_res \, ext_lfo \, ext_phase \, range
\, bend \, mod \, mod_filter_freq \, mod_filter_res \, mod_lfo \, mod_phase
\, mod_fm \, osc1_phase \, osc1_mode \, osc1_waveform \, osc1_oct \,
osc1_semi \, osc1_cent \, osc1_kbd \, fm \, osc2 \, osc2_phase \, osc2_mode
\, osc2_waveform \, osc2_oct \, osc2_semi \, osc2_cent \, osc2_kbd
\, mix \, ring_mod \, noise \, noise_decay \, noise_color \, noise_level
\, lfo1_sync \, lfo1_rate \, lfo1_amount \, lfo1_waveform \, lfo1_dest
\, mod_env_a \, mod_env_d \, mod_env_s \, mod_env_r \, mod_env_inv
\, mod_env_amt \, mod_env_dest \, lfo2_dest \, lfo2_rate \, lfo2_amount
\, lfo2_kbd \, lfo2_delay \, filter_freq \, filter_res \, filter_type
\, filter_kbd \, filter_link \, filter2 \, filter_freq2 \, filter_res2
\, level \, filter_env_a \, filter_env_d \, filter_env_s \, filter_env_r
\, filter_env_amt \, filter_env_inv \, amp_env_a \, amp_env_d \, amp_env_s
\, amp_env_r \, velocity_amp \, velocity_fm \, velocity_mod_env \,
velocity_phase \, velocity_freq2 \, velocity_filter_env \, velocity_filter_decay
\, velocity_mix \, velocity_attack;
#X obj 11 6 r \$0-init1;
#X connect 0 0 14 0;
#X connect 1 0 13 1;
#X connect 2 0 0 0;
#X connect 2 1 10 0;
#X connect 3 0 18 0;
#X connect 4 0 7 0;
#X connect 4 1 1 0;
#X connect 4 2 5 0;
#X connect 4 3 16 0;
#X connect 5 0 6 0;
#X connect 6 0 13 3;
#X connect 7 0 8 0;
#X connect 8 0 13 0;
#X connect 10 0 11 0;
#X connect 10 0 4 0;
#X connect 11 0 10 1;
#X connect 12 0 10 0;
#X connect 13 0 0 1;
#X connect 14 0 9 0;
#X connect 15 0 13 5;
#X connect 16 0 15 0;
#X connect 16 0 13 4;
#X connect 17 0 9 0;
#X connect 18 0 20 0;
#X connect 18 1 21 0;
#X connect 18 2 12 0;
#X connect 18 2 17 0;
#X connect 20 0 19 0;
#X connect 21 0 2 0;
#X connect 22 0 3 0;
#X restore 159 11 pd init_macro;
#X obj 171 49 r \$0-state_;
#N canvas 909 23 116 76 \$0-receivers_shell 0;
#X obj 14 44 outlet;
#N canvas 20 23 423 779 \$0-receivers 0;
#X obj -10 0 outlet;
#X obj 10 40 r 10974-title#;
#X obj 10 60 lprepend title;
#X obj 20 80 r 10974-mode#;
#X obj 20 100 lprepend mode;
#X obj 30 120 r 10974-portamento#;
#X obj 30 140 lprepend portamento;
#X obj 40 160 r 10974-lo_bw#;
#X obj 40 180 lprepend lo_bw;
#X obj 50 200 r 10974-polyphony#;
#X obj 50 220 lprepend polyphony;
#X obj 60 240 r 10974-ext_mod#;
#X obj 60 260 lprepend ext_mod;
#X obj 70 280 r 10974-ext_filter_freq#;
#X obj 70 300 lprepend ext_filter_freq;
#X obj 80 320 r 10974-ext_filter_res#;
#X obj 80 340 lprepend ext_filter_res;
#X obj 90 360 r 10974-ext_lfo#;
#X obj 90 380 lprepend ext_lfo;
#X obj 100 400 r 10974-ext_phase#;
#X obj 100 420 lprepend ext_phase;
#X obj 110 440 r 10974-range#;
#X obj 110 460 lprepend range;
#X obj 120 480 r 10974-bend#;
#X obj 120 500 lprepend bend;
#X obj 130 520 r 10974-mod#;
#X obj 130 540 lprepend mod;
#X obj 140 560 r 10974-mod_filter_freq#;
#X obj 140 580 lprepend mod_filter_freq;
#X obj 150 600 r 10974-mod_filter_res#;
#X obj 150 620 lprepend mod_filter_res;
#X obj 160 640 r 10974-mod_lfo#;
#X obj 160 660 lprepend mod_lfo;
#X obj 170 680 r 10974-mod_phase#;
#X obj 170 700 lprepend mod_phase;
#X obj 180 720 r 10974-mod_fm#;
#X obj 180 740 lprepend mod_fm;
#X obj 190 760 r 10974-osc1_phase#;
#X obj 190 780 lprepend osc1_phase;
#X obj 200 800 r 10974-osc1_mode#;
#X obj 200 820 lprepend osc1_mode;
#X obj 210 840 r 10974-osc1_waveform#;
#X obj 210 860 lprepend osc1_waveform;
#X obj 220 880 r 10974-osc1_oct#;
#X obj 220 900 lprepend osc1_oct;
#X obj 230 920 r 10974-osc1_semi#;
#X obj 230 940 lprepend osc1_semi;
#X obj 240 960 r 10974-osc1_cent#;
#X obj 240 980 lprepend osc1_cent;
#X obj 250 1000 r 10974-osc1_kbd#;
#X obj 250 1020 lprepend osc1_kbd;
#X obj 260 1040 r 10974-fm#;
#X obj 260 1060 lprepend fm;
#X obj 270 1080 r 10974-osc2#;
#X obj 270 1100 lprepend osc2;
#X obj 280 1120 r 10974-osc2_phase#;
#X obj 280 1140 lprepend osc2_phase;
#X obj 290 1160 r 10974-osc2_mode#;
#X obj 290 1180 lprepend osc2_mode;
#X obj 300 1200 r 10974-osc2_waveform#;
#X obj 300 1220 lprepend osc2_waveform;
#X obj 310 1240 r 10974-osc2_oct#;
#X obj 310 1260 lprepend osc2_oct;
#X obj 320 1280 r 10974-osc2_semi#;
#X obj 320 1300 lprepend osc2_semi;
#X obj 330 1320 r 10974-osc2_cent#;
#X obj 330 1340 lprepend osc2_cent;
#X obj 340 1360 r 10974-osc2_kbd#;
#X obj 340 1380 lprepend osc2_kbd;
#X obj 350 1400 r 10974-mix#;
#X obj 350 1420 lprepend mix;
#X obj 360 1440 r 10974-ring_mod#;
#X obj 360 1460 lprepend ring_mod;
#X obj 370 1480 r 10974-noise#;
#X obj 370 1500 lprepend noise;
#X obj 380 1520 r 10974-noise_decay#;
#X obj 380 1540 lprepend noise_decay;
#X obj 390 1560 r 10974-noise_color#;
#X obj 390 1580 lprepend noise_color;
#X obj 400 1600 r 10974-noise_level#;
#X obj 400 1620 lprepend noise_level;
#X obj 410 1640 r 10974-lfo1_sync#;
#X obj 410 1660 lprepend lfo1_sync;
#X obj 420 1680 r 10974-lfo1_rate#;
#X obj 420 1700 lprepend lfo1_rate;
#X obj 430 1720 r 10974-lfo1_amount#;
#X obj 430 1740 lprepend lfo1_amount;
#X obj 440 1760 r 10974-lfo1_waveform#;
#X obj 440 1780 lprepend lfo1_waveform;
#X obj 450 1800 r 10974-lfo1_dest#;
#X obj 450 1820 lprepend lfo1_dest;
#X obj 460 1840 r 10974-mod_env_a#;
#X obj 460 1860 lprepend mod_env_a;
#X obj 470 1880 r 10974-mod_env_d#;
#X obj 470 1900 lprepend mod_env_d;
#X obj 480 1920 r 10974-mod_env_s#;
#X obj 480 1940 lprepend mod_env_s;
#X obj 490 1960 r 10974-mod_env_r#;
#X obj 490 1980 lprepend mod_env_r;
#X obj 500 2000 r 10974-mod_env_inv#;
#X obj 500 2020 lprepend mod_env_inv;
#X obj 510 2040 r 10974-mod_env_amt#;
#X obj 510 2060 lprepend mod_env_amt;
#X obj 520 2080 r 10974-mod_env_dest#;
#X obj 520 2100 lprepend mod_env_dest;
#X obj 530 2120 r 10974-lfo2_dest#;
#X obj 530 2140 lprepend lfo2_dest;
#X obj 540 2160 r 10974-lfo2_rate#;
#X obj 540 2180 lprepend lfo2_rate;
#X obj 550 2200 r 10974-lfo2_amount#;
#X obj 550 2220 lprepend lfo2_amount;
#X obj 560 2240 r 10974-lfo2_kbd#;
#X obj 560 2260 lprepend lfo2_kbd;
#X obj 570 2280 r 10974-lfo2_delay#;
#X obj 570 2300 lprepend lfo2_delay;
#X obj 580 2320 r 10974-filter_freq#;
#X obj 580 2340 lprepend filter_freq;
#X obj 590 2360 r 10974-filter_res#;
#X obj 590 2380 lprepend filter_res;
#X obj 600 2400 r 10974-filter_type#;
#X obj 600 2420 lprepend filter_type;
#X obj 610 2440 r 10974-filter_kbd#;
#X obj 610 2460 lprepend filter_kbd;
#X obj 620 2480 r 10974-filter_link#;
#X obj 620 2500 lprepend filter_link;
#X obj 630 2520 r 10974-filter2#;
#X obj 630 2540 lprepend filter2;
#X obj 640 2560 r 10974-filter_freq2#;
#X obj 640 2580 lprepend filter_freq2;
#X obj 650 2600 r 10974-filter_res2#;
#X obj 650 2620 lprepend filter_res2;
#X obj 660 2640 r 10974-level#;
#X obj 660 2660 lprepend level;
#X obj 670 2680 r 10974-filter_env_a#;
#X obj 670 2700 lprepend filter_env_a;
#X obj 680 2720 r 10974-filter_env_d#;
#X obj 680 2740 lprepend filter_env_d;
#X obj 690 2760 r 10974-filter_env_s#;
#X obj 690 2780 lprepend filter_env_s;
#X obj 700 2800 r 10974-filter_env_r#;
#X obj 700 2820 lprepend filter_env_r;
#X obj 710 2840 r 10974-filter_env_amt#;
#X obj 710 2860 lprepend filter_env_amt;
#X obj 720 2880 r 10974-filter_env_inv#;
#X obj 720 2900 lprepend filter_env_inv;
#X obj 730 2920 r 10974-amp_env_a#;
#X obj 730 2940 lprepend amp_env_a;
#X obj 740 2960 r 10974-amp_env_d#;
#X obj 740 2980 lprepend amp_env_d;
#X obj 750 3000 r 10974-amp_env_s#;
#X obj 750 3020 lprepend amp_env_s;
#X obj 760 3040 r 10974-amp_env_r#;
#X obj 760 3060 lprepend amp_env_r;
#X obj 770 3080 r 10974-velocity_amp#;
#X obj 770 3100 lprepend velocity_amp;
#X obj 780 3120 r 10974-velocity_fm#;
#X obj 780 3140 lprepend velocity_fm;
#X obj 790 3160 r 10974-velocity_mod_env#;
#X obj 790 3180 lprepend velocity_mod_env;
#X obj 800 3200 r 10974-velocity_phase#;
#X obj 800 3220 lprepend velocity_phase;
#X obj 810 3240 r 10974-velocity_freq2#;
#X obj 810 3260 lprepend velocity_freq2;
#X obj 820 3280 r 10974-velocity_filter_env#;
#X obj 820 3300 lprepend velocity_filter_env;
#X obj 830 3320 r 10974-velocity_filter_decay#;
#X obj 830 3340 lprepend velocity_filter_decay;
#X obj 840 3360 r 10974-velocity_mix#;
#X obj 840 3380 lprepend velocity_mix;
#X obj 850 3400 r 10974-velocity_attack#;
#X obj 850 3420 lprepend velocity_attack;
#X connect 1 0 2 0;
#X connect 2 0 0 0;
#X connect 3 0 4 0;
#X connect 4 0 0 0;
#X connect 5 0 6 0;
#X connect 6 0 0 0;
#X connect 7 0 8 0;
#X connect 8 0 0 0;
#X connect 9 0 10 0;
#X connect 10 0 0 0;
#X connect 11 0 12 0;
#X connect 12 0 0 0;
#X connect 13 0 14 0;
#X connect 14 0 0 0;
#X connect 15 0 16 0;
#X connect 16 0 0 0;
#X connect 17 0 18 0;
#X connect 18 0 0 0;
#X connect 19 0 20 0;
#X connect 20 0 0 0;
#X connect 21 0 22 0;
#X connect 22 0 0 0;
#X connect 23 0 24 0;
#X connect 24 0 0 0;
#X connect 25 0 26 0;
#X connect 26 0 0 0;
#X connect 27 0 28 0;
#X connect 28 0 0 0;
#X connect 29 0 30 0;
#X connect 30 0 0 0;
#X connect 31 0 32 0;
#X connect 32 0 0 0;
#X connect 33 0 34 0;
#X connect 34 0 0 0;
#X connect 35 0 36 0;
#X connect 36 0 0 0;
#X connect 37 0 38 0;
#X connect 38 0 0 0;
#X connect 39 0 40 0;
#X connect 40 0 0 0;
#X connect 41 0 42 0;
#X connect 42 0 0 0;
#X connect 43 0 44 0;
#X connect 44 0 0 0;
#X connect 45 0 46 0;
#X connect 46 0 0 0;
#X connect 47 0 48 0;
#X connect 48 0 0 0;
#X connect 49 0 50 0;
#X connect 50 0 0 0;
#X connect 51 0 52 0;
#X connect 52 0 0 0;
#X connect 53 0 54 0;
#X connect 54 0 0 0;
#X connect 55 0 56 0;
#X connect 56 0 0 0;
#X connect 57 0 58 0;
#X connect 58 0 0 0;
#X connect 59 0 60 0;
#X connect 60 0 0 0;
#X connect 61 0 62 0;
#X connect 62 0 0 0;
#X connect 63 0 64 0;
#X connect 64 0 0 0;
#X connect 65 0 66 0;
#X connect 66 0 0 0;
#X connect 67 0 68 0;
#X connect 68 0 0 0;
#X connect 69 0 70 0;
#X connect 70 0 0 0;
#X connect 71 0 72 0;
#X connect 72 0 0 0;
#X connect 73 0 74 0;
#X connect 74 0 0 0;
#X connect 75 0 76 0;
#X connect 76 0 0 0;
#X connect 77 0 78 0;
#X connect 78 0 0 0;
#X connect 79 0 80 0;
#X connect 80 0 0 0;
#X connect 81 0 82 0;
#X connect 82 0 0 0;
#X connect 83 0 84 0;
#X connect 84 0 0 0;
#X connect 85 0 86 0;
#X connect 86 0 0 0;
#X connect 87 0 88 0;
#X connect 88 0 0 0;
#X connect 89 0 90 0;
#X connect 90 0 0 0;
#X connect 91 0 92 0;
#X connect 92 0 0 0;
#X connect 93 0 94 0;
#X connect 94 0 0 0;
#X connect 95 0 96 0;
#X connect 96 0 0 0;
#X connect 97 0 98 0;
#X connect 98 0 0 0;
#X connect 99 0 100 0;
#X connect 100 0 0 0;
#X connect 101 0 102 0;
#X connect 102 0 0 0;
#X connect 103 0 104 0;
#X connect 104 0 0 0;
#X connect 105 0 106 0;
#X connect 106 0 0 0;
#X connect 107 0 108 0;
#X connect 108 0 0 0;
#X connect 109 0 110 0;
#X connect 110 0 0 0;
#X connect 111 0 112 0;
#X connect 112 0 0 0;
#X connect 113 0 114 0;
#X connect 114 0 0 0;
#X connect 115 0 116 0;
#X connect 116 0 0 0;
#X connect 117 0 118 0;
#X connect 118 0 0 0;
#X connect 119 0 120 0;
#X connect 120 0 0 0;
#X connect 121 0 122 0;
#X connect 122 0 0 0;
#X connect 123 0 124 0;
#X connect 124 0 0 0;
#X connect 125 0 126 0;
#X connect 126 0 0 0;
#X connect 127 0 128 0;
#X connect 128 0 0 0;
#X connect 129 0 130 0;
#X connect 130 0 0 0;
#X connect 131 0 132 0;
#X connect 132 0 0 0;
#X connect 133 0 134 0;
#X connect 134 0 0 0;
#X connect 135 0 136 0;
#X connect 136 0 0 0;
#X connect 137 0 138 0;
#X connect 138 0 0 0;
#X connect 139 0 140 0;
#X connect 140 0 0 0;
#X connect 141 0 142 0;
#X connect 142 0 0 0;
#X connect 143 0 144 0;
#X connect 144 0 0 0;
#X connect 145 0 146 0;
#X connect 146 0 0 0;
#X connect 147 0 148 0;
#X connect 148 0 0 0;
#X connect 149 0 150 0;
#X connect 150 0 0 0;
#X connect 151 0 152 0;
#X connect 152 0 0 0;
#X connect 153 0 154 0;
#X connect 154 0 0 0;
#X connect 155 0 156 0;
#X connect 156 0 0 0;
#X connect 157 0 158 0;
#X connect 158 0 0 0;
#X connect 159 0 160 0;
#X connect 160 0 0 0;
#X connect 161 0 162 0;
#X connect 162 0 0 0;
#X connect 163 0 164 0;
#X connect 164 0 0 0;
#X connect 165 0 166 0;
#X connect 166 0 0 0;
#X connect 167 0 168 0;
#X connect 168 0 0 0;
#X connect 169 0 170 0;
#X connect 170 0 0 0;
#X restore 14 15 pd \$0-receivers;
#X connect 1 0 0 0;
#X restore 159 28 pd \$0-receivers_shell;
#X obj 171 70 dictionary-small;
#X obj 171 112 lprepend;
#X msg 108 120 view;
#X obj 151 137 Subtractor-presets;
#N canvas 400 173 464 351 save 0;
#X obj 6 -6 r \$0-patch_save;
#X obj 6 33 bng 15 250 50 0 empty empty empty 17 7 0 10 -262144 -1
-1;
#N canvas 543 87 530 226 \$0-save_dialog 0;
#X obj -282 47 cnv 15 430 20 empty empty empty 20 12 0 14 -188021 -66577
0;
#X symbolatom 12 49 20 0 0 0 - #0-title_savedialog #0-title;
#X text -281 10 All your presets are stored in the [Subtractor-presets]
patch.;
#X text -228 48 type the Preset Name \, then press enter:;
#X text -282 47 To save \,;
#X text -272 158 Current Presets:;
#X msg -169 158 Default Bass_Guitar Warm_Pad Obie_Brass Juicer_II Dead_Soul
Electric_Piano Bread_Bass;
#X obj -169 135 r \$0-current_presets;
#X text -282 110 Forbidden Preset Names: init delete clear reset all
view;
#X text 60 110 presets;
#X text -281 75 It must be a single word - spaces \, commas \, and
semicolons are not allowed.;
#X connect 7 0 6 0;
#X restore 5 264 pd \$0-save_dialog;
#X obj 38 15 r \$0-title;
#X obj 6 101 t b b;
#X msg 33 121 presets;
#X obj 33 141 s \$0-presets;
#X msg 338 206 presets;
#X obj 356 226 s \$0-presets;
#X msg 6 166 vis 1;
#X obj 326 162 s \$0-save;
#X obj 311 184 t b b;
#X obj 6 242 s pd-\$0-save_dialog;
#X msg 131 225 vis 0;
#X obj 38 57 route init delete clear reset all view presets;
#N canvas 457 443 313 155 error 0;
#X obj 9 7 inlet;
#X obj 9 29 bng 15 250 50 0 empty empty empty 17 7 0 10 -262144 -1
-1;
#X msg 36 68 invalid preset name. Please enter another.;
#X obj 9 47 t b b;
#X obj 36 90 print ERROR;
#X msg 9 111 vis 1;
#X obj 9 132 s pd-\$0-save_dialog;
#X connect 0 0 1 0;
#X connect 1 0 3 0;
#X connect 2 0 4 0;
#X connect 3 0 5 0;
#X connect 3 1 2 0;
#X connect 5 0 6 0;
#X restore 38 81 pd error;
#X obj 371 102 s \$0-title_;
#X obj 356 122 lprepend init;
#X obj 341 246 s \$0-state_;
#X msg 341 142 all;
#X obj 38 36 list trim;
#X obj 104 201 t b b;
#X msg 104 285 \; pd-Subtractor-presets.pd menusave 1 \; pd-Subtractor.pd
menusave 1 \;;
#X obj 311 81 t b b b a a a;
#X obj 386 142 s \$0-last;
#X connect 0 0 1 0;
#X connect 1 0 4 0;
#X connect 3 0 20 0;
#X connect 4 0 9 0;
#X connect 4 1 5 0;
#X connect 5 0 6 0;
#X connect 7 0 8 0;
#X connect 9 0 12 0;
#X connect 11 0 21 0;
#X connect 11 1 7 0;
#X connect 13 0 12 0;
#X connect 14 0 15 0;
#X connect 14 1 15 0;
#X connect 14 2 15 0;
#X connect 14 3 15 0;
#X connect 14 4 15 0;
#X connect 14 5 15 0;
#X connect 14 6 15 0;
#X connect 14 7 23 0;
#X connect 17 0 8 0;
#X connect 19 0 18 0;
#X connect 20 0 14 0;
#X connect 21 0 22 0;
#X connect 21 1 13 0;
#X connect 23 0 11 0;
#X connect 23 1 10 0;
#X connect 23 2 19 0;
#X connect 23 3 17 0;
#X connect 23 4 16 0;
#X connect 23 5 24 0;
#X restore 192 -33 pd save;
#X obj 203 259 s \$0-current_presets;
#X obj 203 238 lprepend set;
#N canvas 6 504 576 210 reset 0;
#X obj 5 -50 r \$0-reset;
#X obj 39 71 s \$0-current_presets;
#X msg 39 51 set;
#X obj 70 -50 bng 15 250 50 0 empty empty Restore_to_Initial_Config_(will_erase_all_presets)
17 7 0 10 -262144 -1 -1;
#X obj 98 12 s \$0-state_;
#X obj 56 31 s \$0-presets;
#X obj 22 91 s \$0-default;
#X obj 5 -26 t b b b b;
#X obj 5 131 s \$0-title;
#X msg 5 111 Default;
#X msg 56 -5 clear;
#X msg 179 14 reset;
#X text 218 12 <- careful! This could break things.;
#X text 235 27 Only press this again if you plan on using multiple
instances of [subtractor].;
#X text 232 60 This gives the preset module a new ID and erases any
existing ones;
#X connect 0 0 7 0;
#X connect 2 0 1 0;
#X connect 3 0 7 0;
#X connect 7 0 9 0;
#X connect 7 1 6 0;
#X connect 7 2 2 0;
#X connect 7 3 10 0;
#X connect 9 0 8 0;
#X connect 10 0 4 0;
#X connect 10 0 5 0;
#X connect 11 0 5 0;
#X restore 138 -33 pd reset;
#N canvas 508 455 333 216 open 0;
#X obj 4 4 r \$0-patch_open;
#N canvas 641 30 491 164 \$0-open_dialog 0;
#X text -227 2 Which preset would you like to open?;
#X text -217 91 Current Presets:;
#X msg -114 91 Default Bass_Guitar Warm_Pad Obie_Brass Juicer_II Dead_Soul
Electric_Piano Bread_Bass;
#X obj -114 68 r \$0-current_presets;
#X obj -226 22 cnv 15 420 20 empty empty empty 20 12 0 14 -188021 -66577
0;
#X symbolatom 70 24 20 0 0 0 - #0-open_ #0-open;
#X text -172 23 type the Preset Name \, then press enter:;
#X text -226 22 To open \,;
#X obj -19 52 cnv 15 100 1 empty \$0-alert empty 0 0 1 14 -262144 -176129
0;
#X connect 3 0 2 0;
#X restore 4 191 pd \$0-open_dialog;
#X obj 127 4 r \$0-open;
#X obj 4 64 bng 15 250 50 0 empty empty empty 17 7 0 10 -262144 -1
-1;
#X obj 4 87 t b b;
#X msg 31 107 presets;
#X obj 31 128 s \$0-presets;
#X msg 4 149 vis 1;
#X obj 4 170 s pd-\$0-open_dialog;
#X obj 127 124 s \$0-presets;
#X obj 127 82 list append all;
#X obj 127 103 list trim;
#X obj 154 145 s \$0-default;
#X obj 127 27 t a b;
#X obj 227 78 lprepend set;
#X msg 227 114 Warm_Pad;
#X obj 260 97 r \$0-init5;
#X obj 227 57 r \$0-last;
#X msg 128 177 \; pd-Subtractor.pd menusave 1 \;;
#X obj 100 57 t b a;
#X connect 0 0 3 0;
#X connect 2 0 13 0;
#X connect 3 0 4 0;
#X connect 4 0 7 0;
#X connect 4 1 5 0;
#X connect 5 0 6 0;
#X connect 7 0 8 0;
#X connect 10 0 11 0;
#X connect 11 0 9 0;
#X connect 13 0 14 0;
#X connect 13 0 19 0;
#X connect 13 1 12 0;
#X connect 14 0 15 0;
#X connect 15 0 13 0;
#X connect 16 0 15 0;
#X connect 17 0 14 0;
#X connect 19 0 18 0;
#X connect 19 1 10 0;
#X restore 240 -33 pd open;
#N canvas 761 23 424 628 init_macro 0;
#X obj 30 465 list;
#X obj 30 318 t a b;
#X obj 11 26 bng 15 250 50 0 empty empty empty 17 7 0 10 -262144 -1
-1;
#X obj 57 380 t f f f f;
#X obj 128 402 * 2;
#X obj 128 422 - 0;
#X obj 57 403 * 2;
#X obj 57 423 - 1;
#X obj 57 360 f;
#X obj 80 360 + 1;
#X msg 45 341 0;
#X obj 57 446 pack 0 0 \$0 0 0 0;
#X obj 156 397 * 40;
#X obj 11 44 t b b b b;
#X obj 11 607 s pd-\$0-gui_shell;
#X obj 30 542 s pd-\$0-gui;
#X msg 45 520 clear \, obj -10 0 inlet \,;
#X msg 30 485 obj \$3 \$6 route \$1 \, obj \$3 \$7 s \$4-\$1_ \, connect
\$2 0 \$5 0 \, connect 0 0 \$2 0;
#X msg 11 584 connect 0 0 1 0;
#X obj 93 411 * 15;
#X obj 156 428 + 20;
#X msg 30 64 title \, mode \, portamento \, lo_bw \, polyphony \, ext_mod
\, ext_filter_freq \, ext_filter_res \, ext_lfo \, ext_phase \, range
\, bend \, mod \, mod_filter_freq \, mod_filter_res \, mod_lfo \, mod_phase
\, mod_fm \, osc1_phase \, osc1_mode \, osc1_waveform \, osc1_oct \,
osc1_semi \, osc1_cent \, osc1_kbd \, fm \, osc2 \, osc2_phase \, osc2_mode
\, osc2_waveform \, osc2_oct \, osc2_semi \, osc2_cent \, osc2_kbd
\, mix \, ring_mod \, noise \, noise_decay \, noise_color \, noise_level
\, lfo1_sync \, lfo1_rate \, lfo1_amount \, lfo1_waveform \, lfo1_dest
\, mod_env_a \, mod_env_d \, mod_env_s \, mod_env_r \, mod_env_inv
\, mod_env_amt \, mod_env_dest \, lfo2_dest \, lfo2_rate \, lfo2_amount
\, lfo2_kbd \, lfo2_delay \, filter_freq \, filter_res \, filter_type
\, filter_kbd \, filter_link \, filter2 \, filter_freq2 \, filter_res2
\, level \, filter_env_a \, filter_env_d \, filter_env_s \, filter_env_r
\, filter_env_amt \, filter_env_inv \, amp_env_a \, amp_env_d \, amp_env_s
\, amp_env_r \, velocity_amp \, velocity_fm \, velocity_mod_env \,
velocity_phase \, velocity_freq2 \, velocity_filter_env \, velocity_filter_decay
\, velocity_mix \, velocity_attack;
#X obj 11 6 r \$0-init1;
#X connect 0 0 17 0;
#X connect 1 0 0 0;
#X connect 1 1 8 0;
#X connect 2 0 13 0;
#X connect 3 0 6 0;
#X connect 3 1 19 0;
#X connect 3 2 4 0;
#X connect 3 3 12 0;
#X connect 4 0 5 0;
#X connect 5 0 11 3;
#X connect 6 0 7 0;
#X connect 7 0 11 0;
#X connect 8 0 9 0;
#X connect 8 0 3 0;
#X connect 9 0 8 1;
#X connect 10 0 8 0;
#X connect 11 0 0 1;
#X connect 12 0 11 4;
#X connect 12 0 20 0;
#X connect 13 0 18 0;
#X connect 13 1 21 0;
#X connect 13 2 10 0;
#X connect 13 2 16 0;
#X connect 16 0 15 0;
#X connect 17 0 15 0;
#X connect 18 0 14 0;
#X connect 19 0 11 1;
#X connect 20 0 11 5;
#X connect 21 0 1 0;
#X connect 22 0 2 0;
#X restore 163 300 pd init_macro;
#N canvas 909 23 116 76 \$0-gui_shell 0;
#X obj -8 5 inlet;
#N canvas 437 23 419 717 \$0-gui 0;
#X obj -10 0 inlet;
#X obj 15 40 route title;
#X obj 15 60 s 10974-title_;
#X obj 30 80 route mode;
#X obj 30 100 s 10974-mode_;
#X obj 45 120 route portamento;
#X obj 45 140 s 10974-portamento_;
#X obj 60 160 route lo_bw;
#X obj 60 180 s 10974-lo_bw_;
#X obj 75 200 route polyphony;
#X obj 75 220 s 10974-polyphony_;
#X obj 90 240 route ext_mod;
#X obj 90 260 s 10974-ext_mod_;
#X obj 105 280 route ext_filter_freq;
#X obj 105 300 s 10974-ext_filter_freq_;
#X obj 120 320 route ext_filter_res;
#X obj 120 340 s 10974-ext_filter_res_;
#X obj 135 360 route ext_lfo;
#X obj 135 380 s 10974-ext_lfo_;
#X obj 150 400 route ext_phase;
#X obj 150 420 s 10974-ext_phase_;
#X obj 165 440 route range;
#X obj 165 460 s 10974-range_;
#X obj 180 480 route bend;
#X obj 180 500 s 10974-bend_;
#X obj 195 520 route mod;
#X obj 195 540 s 10974-mod_;
#X obj 210 560 route mod_filter_freq;
#X obj 210 580 s 10974-mod_filter_freq_;
#X obj 225 600 route mod_filter_res;
#X obj 225 620 s 10974-mod_filter_res_;
#X obj 240 640 route mod_lfo;
#X obj 240 660 s 10974-mod_lfo_;
#X obj 255 680 route mod_phase;
#X obj 255 700 s 10974-mod_phase_;
#X obj 270 720 route mod_fm;
#X obj 270 740 s 10974-mod_fm_;
#X obj 285 760 route osc1_phase;
#X obj 285 780 s 10974-osc1_phase_;
#X obj 300 800 route osc1_mode;
#X obj 300 820 s 10974-osc1_mode_;
#X obj 315 840 route osc1_waveform;
#X obj 315 860 s 10974-osc1_waveform_;
#X obj 330 880 route osc1_oct;
#X obj 330 900 s 10974-osc1_oct_;
#X obj 345 920 route osc1_semi;
#X obj 345 940 s 10974-osc1_semi_;
#X obj 360 960 route osc1_cent;
#X obj 360 980 s 10974-osc1_cent_;
#X obj 375 1000 route osc1_kbd;
#X obj 375 1020 s 10974-osc1_kbd_;
#X obj 390 1040 route fm;
#X obj 390 1060 s 10974-fm_;
#X obj 405 1080 route osc2;
#X obj 405 1100 s 10974-osc2_;
#X obj 420 1120 route osc2_phase;
#X obj 420 1140 s 10974-osc2_phase_;
#X obj 435 1160 route osc2_mode;
#X obj 435 1180 s 10974-osc2_mode_;
#X obj 450 1200 route osc2_waveform;
#X obj 450 1220 s 10974-osc2_waveform_;
#X obj 465 1240 route osc2_oct;
#X obj 465 1260 s 10974-osc2_oct_;
#X obj 480 1280 route osc2_semi;
#X obj 480 1300 s 10974-osc2_semi_;
#X obj 495 1320 route osc2_cent;
#X obj 495 1340 s 10974-osc2_cent_;
#X obj 510 1360 route osc2_kbd;
#X obj 510 1380 s 10974-osc2_kbd_;
#X obj 525 1400 route mix;
#X obj 525 1420 s 10974-mix_;
#X obj 540 1440 route ring_mod;
#X obj 540 1460 s 10974-ring_mod_;
#X obj 555 1480 route noise;
#X obj 555 1500 s 10974-noise_;
#X obj 570 1520 route noise_decay;
#X obj 570 1540 s 10974-noise_decay_;
#X obj 585 1560 route noise_color;
#X obj 585 1580 s 10974-noise_color_;
#X obj 600 1600 route noise_level;
#X obj 600 1620 s 10974-noise_level_;
#X obj 615 1640 route lfo1_sync;
#X obj 615 1660 s 10974-lfo1_sync_;
#X obj 630 1680 route lfo1_rate;
#X obj 630 1700 s 10974-lfo1_rate_;
#X obj 645 1720 route lfo1_amount;
#X obj 645 1740 s 10974-lfo1_amount_;
#X obj 660 1760 route lfo1_waveform;
#X obj 660 1780 s 10974-lfo1_waveform_;
#X obj 675 1800 route lfo1_dest;
#X obj 675 1820 s 10974-lfo1_dest_;
#X obj 690 1840 route mod_env_a;
#X obj 690 1860 s 10974-mod_env_a_;
#X obj 705 1880 route mod_env_d;
#X obj 705 1900 s 10974-mod_env_d_;
#X obj 720 1920 route mod_env_s;
#X obj 720 1940 s 10974-mod_env_s_;
#X obj 735 1960 route mod_env_r;
#X obj 735 1980 s 10974-mod_env_r_;
#X obj 750 2000 route mod_env_inv;
#X obj 750 2020 s 10974-mod_env_inv_;
#X obj 765 2040 route mod_env_amt;
#X obj 765 2060 s 10974-mod_env_amt_;
#X obj 780 2080 route mod_env_dest;
#X obj 780 2100 s 10974-mod_env_dest_;
#X obj 795 2120 route lfo2_dest;
#X obj 795 2140 s 10974-lfo2_dest_;
#X obj 810 2160 route lfo2_rate;
#X obj 810 2180 s 10974-lfo2_rate_;
#X obj 825 2200 route lfo2_amount;
#X obj 825 2220 s 10974-lfo2_amount_;
#X obj 840 2240 route lfo2_kbd;
#X obj 840 2260 s 10974-lfo2_kbd_;
#X obj 855 2280 route lfo2_delay;
#X obj 855 2300 s 10974-lfo2_delay_;
#X obj 870 2320 route filter_freq;
#X obj 870 2340 s 10974-filter_freq_;
#X obj 885 2360 route filter_res;
#X obj 885 2380 s 10974-filter_res_;
#X obj 900 2400 route filter_type;
#X obj 900 2420 s 10974-filter_type_;
#X obj 915 2440 route filter_kbd;
#X obj 915 2460 s 10974-filter_kbd_;
#X obj 930 2480 route filter_link;
#X obj 930 2500 s 10974-filter_link_;
#X obj 945 2520 route filter2;
#X obj 945 2540 s 10974-filter2_;
#X obj 960 2560 route filter_freq2;
#X obj 960 2580 s 10974-filter_freq2_;
#X obj 975 2600 route filter_res2;
#X obj 975 2620 s 10974-filter_res2_;
#X obj 990 2640 route level;
#X obj 990 2660 s 10974-level_;
#X obj 1005 2680 route filter_env_a;
#X obj 1005 2700 s 10974-filter_env_a_;
#X obj 1020 2720 route filter_env_d;
#X obj 1020 2740 s 10974-filter_env_d_;
#X obj 1035 2760 route filter_env_s;
#X obj 1035 2780 s 10974-filter_env_s_;
#X obj 1050 2800 route filter_env_r;
#X obj 1050 2820 s 10974-filter_env_r_;
#X obj 1065 2840 route filter_env_amt;
#X obj 1065 2860 s 10974-filter_env_amt_;
#X obj 1080 2880 route filter_env_inv;
#X obj 1080 2900 s 10974-filter_env_inv_;
#X obj 1095 2920 route amp_env_a;
#X obj 1095 2940 s 10974-amp_env_a_;
#X obj 1110 2960 route amp_env_d;
#X obj 1110 2980 s 10974-amp_env_d_;
#X obj 1125 3000 route amp_env_s;
#X obj 1125 3020 s 10974-amp_env_s_;
#X obj 1140 3040 route amp_env_r;
#X obj 1140 3060 s 10974-amp_env_r_;
#X obj 1155 3080 route velocity_amp;
#X obj 1155 3100 s 10974-velocity_amp_;
#X obj 1170 3120 route velocity_fm;
#X obj 1170 3140 s 10974-velocity_fm_;
#X obj 1185 3160 route velocity_mod_env;
#X obj 1185 3180 s 10974-velocity_mod_env_;
#X obj 1200 3200 route velocity_phase;
#X obj 1200 3220 s 10974-velocity_phase_;
#X obj 1215 3240 route velocity_freq2;
#X obj 1215 3260 s 10974-velocity_freq2_;
#X obj 1230 3280 route velocity_filter_env;
#X obj 1230 3300 s 10974-velocity_filter_env_;
#X obj 1245 3320 route velocity_filter_decay;
#X obj 1245 3340 s 10974-velocity_filter_decay_;
#X obj 1260 3360 route velocity_mix;
#X obj 1260 3380 s 10974-velocity_mix_;
#X obj 1275 3400 route velocity_attack;
#X obj 1275 3420 s 10974-velocity_attack_;
#X connect 0 0 1 0;
#X connect 0 0 3 0;
#X connect 0 0 5 0;
#X connect 0 0 7 0;
#X connect 0 0 9 0;
#X connect 0 0 11 0;
#X connect 0 0 13 0;
#X connect 0 0 15 0;
#X connect 0 0 17 0;
#X connect 0 0 19 0;
#X connect 0 0 21 0;
#X connect 0 0 23 0;
#X connect 0 0 25 0;
#X connect 0 0 27 0;
#X connect 0 0 29 0;
#X connect 0 0 31 0;
#X connect 0 0 33 0;
#X connect 0 0 35 0;
#X connect 0 0 37 0;
#X connect 0 0 39 0;
#X connect 0 0 41 0;
#X connect 0 0 43 0;
#X connect 0 0 45 0;
#X connect 0 0 47 0;
#X connect 0 0 49 0;
#X connect 0 0 51 0;
#X connect 0 0 53 0;
#X connect 0 0 55 0;
#X connect 0 0 57 0;
#X connect 0 0 59 0;
#X connect 0 0 61 0;
#X connect 0 0 63 0;
#X connect 0 0 65 0;
#X connect 0 0 67 0;
#X connect 0 0 69 0;
#X connect 0 0 71 0;
#X connect 0 0 73 0;
#X connect 0 0 75 0;
#X connect 0 0 77 0;
#X connect 0 0 79 0;
#X connect 0 0 81 0;
#X connect 0 0 83 0;
#X connect 0 0 85 0;
#X connect 0 0 87 0;
#X connect 0 0 89 0;
#X connect 0 0 91 0;
#X connect 0 0 93 0;
#X connect 0 0 95 0;
#X connect 0 0 97 0;
#X connect 0 0 99 0;
#X connect 0 0 101 0;
#X connect 0 0 103 0;
#X connect 0 0 105 0;
#X connect 0 0 107 0;
#X connect 0 0 109 0;
#X connect 0 0 111 0;
#X connect 0 0 113 0;
#X connect 0 0 115 0;
#X connect 0 0 117 0;
#X connect 0 0 119 0;
#X connect 0 0 121 0;
#X connect 0 0 123 0;
#X connect 0 0 125 0;
#X connect 0 0 127 0;
#X connect 0 0 129 0;
#X connect 0 0 131 0;
#X connect 0 0 133 0;
#X connect 0 0 135 0;
#X connect 0 0 137 0;
#X connect 0 0 139 0;
#X connect 0 0 141 0;
#X connect 0 0 143 0;
#X connect 0 0 145 0;
#X connect 0 0 147 0;
#X connect 0 0 149 0;
#X connect 0 0 151 0;
#X connect 0 0 153 0;
#X connect 0 0 155 0;
#X connect 0 0 157 0;
#X connect 0 0 159 0;
#X connect 0 0 161 0;
#X connect 0 0 163 0;
#X connect 0 0 165 0;
#X connect 0 0 167 0;
#X connect 0 0 169 0;
#X connect 1 0 2 0;
#X connect 3 0 4 0;
#X connect 5 0 6 0;
#X connect 7 0 8 0;
#X connect 9 0 10 0;
#X connect 11 0 12 0;
#X connect 13 0 14 0;
#X connect 15 0 16 0;
#X connect 17 0 18 0;
#X connect 19 0 20 0;
#X connect 21 0 22 0;
#X connect 23 0 24 0;
#X connect 25 0 26 0;
#X connect 27 0 28 0;
#X connect 29 0 30 0;
#X connect 31 0 32 0;
#X connect 33 0 34 0;
#X connect 35 0 36 0;
#X connect 37 0 38 0;
#X connect 39 0 40 0;
#X connect 41 0 42 0;
#X connect 43 0 44 0;
#X connect 45 0 46 0;
#X connect 47 0 48 0;
#X connect 49 0 50 0;
#X connect 51 0 52 0;
#X connect 53 0 54 0;
#X connect 55 0 56 0;
#X connect 57 0 58 0;
#X connect 59 0 60 0;
#X connect 61 0 62 0;
#X connect 63 0 64 0;
#X connect 65 0 66 0;
#X connect 67 0 68 0;
#X connect 69 0 70 0;
#X connect 71 0 72 0;
#X connect 73 0 74 0;
#X connect 75 0 76 0;
#X connect 77 0 78 0;
#X connect 79 0 80 0;
#X connect 81 0 82 0;
#X connect 83 0 84 0;
#X connect 85 0 86 0;
#X connect 87 0 88 0;
#X connect 89 0 90 0;
#X connect 91 0 92 0;
#X connect 93 0 94 0;
#X connect 95 0 96 0;
#X connect 97 0 98 0;
#X connect 99 0 100 0;
#X connect 101 0 102 0;
#X connect 103 0 104 0;
#X connect 105 0 106 0;
#X connect 107 0 108 0;
#X connect 109 0 110 0;
#X connect 111 0 112 0;
#X connect 113 0 114 0;
#X connect 115 0 116 0;
#X connect 117 0 118 0;
#X connect 119 0 120 0;
#X connect 121 0 122 0;
#X connect 123 0 124 0;
#X connect 125 0 126 0;
#X connect 127 0 128 0;
#X connect 129 0 130 0;
#X connect 131 0 132 0;
#X connect 133 0 134 0;
#X connect 135 0 136 0;
#X connect 137 0 138 0;
#X connect 139 0 140 0;
#X connect 141 0 142 0;
#X connect 143 0 144 0;
#X connect 145 0 146 0;
#X connect 147 0 148 0;
#X connect 149 0 150 0;
#X connect 151 0 152 0;
#X connect 153 0 154 0;
#X connect 155 0 156 0;
#X connect 157 0 158 0;
#X connect 159 0 160 0;
#X connect 161 0 162 0;
#X connect 163 0 164 0;
#X connect 165 0 166 0;
#X connect 167 0 168 0;
#X connect 169 0 170 0;
#X restore -8 40 pd \$0-gui;
#X connect 0 0 1 0;
#X restore 151 317 pd \$0-gui_shell;
#N canvas 634 472 463 81 gui_wrappers 0;
#N canvas 293 528 191 91 label 0;
#X obj 11 43 lprepend label;
#X obj 11 21 r \$0-title_;
#X obj 11 64 s \$0-gui_title;
#X obj 110 38 s \$0-title#;
#X connect 0 0 2 0;
#X connect 1 0 0 0;
#X connect 1 0 3 0;
#X restore 2 -12 pd label;
#N canvas 373 446 188 55 polyphony 0;
#N canvas 555 400 582 189 mode 0;
#X obj 94 25 r \$0-polyphony_mode_;
#X obj 94 70 route legato retrig;
#N canvas 874 568 450 300 error 0;
#X obj -9 54 list prepend invalid polyphony mode:;
#X obj -9 74 list trim;
#X obj -9 94 print SUBTRACTOR_ERROR;
#X obj -9 33 inlet;
#X connect 0 0 1 0;
#X connect 1 0 2 0;
#X connect 3 0 0 0;
#X restore 205 99 pd error;
#X obj 21 144 s \$0-legato_;
#X obj 149 144 s \$0-retrig_;
#X msg 21 122 color 24;
#X msg 78 122 color 103;
#X msg 149 122 color 24;
#X msg 206 122 color 103;
#X obj 94 94 t b b;
#X obj 149 94 t b b;
#X obj 223 59 tgl 15 0 empty empty empty 17 7 0 10 -262144 -1 -1 0
1;
#X obj 223 77 sel 0 1;
#X obj 223 39 r \$0-polyphony_mode;
#X obj 406 25 r \$0-legato;
#X obj 480 25 r \$0-retrig;
#X obj 406 45 s \$0-set_legato;
#X obj 480 65 s \$0-set_retrig;
#X msg 345 42 0;
#X msg 369 42 1;
#X msg 312 89 legato;
#X msg 320 113 retrig;
#X obj 97 49 s \$0-mode#;
#X connect 0 0 1 0;
#X connect 0 0 22 0;
#X connect 1 0 9 0;
#X connect 1 1 10 0;
#X connect 1 2 2 0;
#X connect 5 0 3 0;
#X connect 6 0 3 0;
#X connect 7 0 4 0;
#X connect 8 0 4 0;
#X connect 9 0 6 0;
#X connect 9 1 7 0;
#X connect 9 1 16 0;
#X connect 10 0 5 0;
#X connect 10 1 8 0;
#X connect 10 1 17 0;
#X connect 11 0 12 0;
#X connect 12 0 9 0;
#X connect 12 0 16 0;
#X connect 12 0 20 0;
#X connect 12 1 10 0;
#X connect 12 1 17 0;
#X connect 12 1 21 0;
#X connect 13 0 11 0;
#X connect 14 0 16 0;
#X connect 14 0 18 0;
#X connect 15 0 17 0;
#X connect 15 0 19 0;
#X connect 18 0 11 0;
#X connect 19 0 11 0;
#X connect 20 0 22 0;
#X connect 21 0 22 0;
#X restore 7 -106 pd mode;
#N canvas 324 445 260 143 number_of_notes 0;
#X obj 21 25 r \$0-polyphony;
#X obj 6 63 f;
#X obj 135 63 f;
#X obj 135 24 r \$0-polyphony_up;
#X obj 135 86 + 1;
#X obj 135 109 s \$0-polyphony_;
#X obj 6 108 s \$0-polyphony_;
#X obj 6 85 - 1;
#X obj 6 6 r \$0-polyphony_down;
#X connect 0 0 1 1;
#X connect 0 0 2 1;
#X connect 1 0 7 0;
#X connect 2 0 4 0;
#X connect 3 0 2 0;
#X connect 4 0 5 0;
#X connect 7 0 6 0;
#X connect 8 0 1 0;
#X restore 60 -106 pd number_of_notes;
#X restore 57 -12 pd polyphony;
#N canvas 399 462 773 241 ext_mod 0;
#N canvas 874 568 450 300 error 0;
#X obj -9 74 list trim;
#X obj -9 94 print SUBTRACTOR_ERROR;
#X obj -9 33 inlet;
#X obj -9 54 list prepend invalid external mod mode:;
#X connect 0 0 1 0;
#X connect 2 0 3 0;
#X connect 3 0 0 0;
#X restore 339 132 pd error;
#X msg 17 155 color 24;
#X msg 74 155 color 103;
#X msg 145 155 color 24;
#X msg 202 155 color 103;
#X obj 174 80 r \$0-ext_mod_;
#X obj 353 91 hradio 15 1 0 3 empty empty empty 0 -8 0 10 -262144 -1
-1 0;
#X obj 174 102 route aftertouch expr breath;
#X obj 17 177 s \$0-aftertouch_;
#X obj 145 177 s \$0-expr_;
#X obj 174 126 t b b b;
#X obj 229 126 t b b b;
#X msg 266 155 color 24;
#X msg 323 155 color 103;
#X obj 266 177 s \$0-breath_;
#X obj 284 126 t b b b;
#X obj 353 109 sel 0 1 2;
#X obj 482 19 r \$0-aftertouch;
#X obj 579 19 r \$0-expr;
#X obj 482 43 s \$0-set_aftertouch;
#X obj 579 62 s \$0-set_expr;
#X obj 640 81 s \$0-set_breath;
#X obj 640 19 r \$0-breath;
#X obj 353 34 r \$0-ext_mod;
#X obj 353 53 f;
#X obj 377 53 + 1;
#X obj 353 72 mod 3;
#X msg 434 36 0;
#X msg 443 36 1;
#X msg 452 36 2;
#X obj 279 36 loadbang;
#X connect 1 0 8 0;
#X connect 2 0 8 0;
#X connect 3 0 9 0;
#X connect 4 0 9 0;
#X connect 5 0 7 0;
#X connect 6 0 16 0;
#X connect 7 0 10 0;
#X connect 7 1 11 0;
#X connect 7 2 15 0;
#X connect 7 3 0 0;
#X connect 10 0 2 0;
#X connect 10 1 3 0;
#X connect 10 2 12 0;
#X connect 10 2 19 0;
#X connect 11 0 1 0;
#X connect 11 1 4 0;
#X connect 11 2 12 0;
#X connect 11 2 20 0;
#X connect 12 0 14 0;
#X connect 13 0 14 0;
#X connect 15 0 1 0;
#X connect 15 1 3 0;
#X connect 15 2 13 0;
#X connect 15 2 21 0;
#X connect 16 0 10 0;
#X connect 16 0 19 0;
#X connect 16 1 11 0;
#X connect 16 1 20 0;
#X connect 16 2 15 0;
#X connect 16 2 21 0;
#X connect 17 0 19 0;
#X connect 17 0 27 0;
#X connect 18 0 20 0;
#X connect 18 0 28 0;
#X connect 22 0 21 0;
#X connect 22 0 29 0;
#X connect 23 0 24 0;
#X connect 24 0 25 0;
#X connect 24 0 26 0;
#X connect 25 0 24 1;
#X connect 26 0 6 0;
#X connect 27 0 24 0;
#X connect 28 0 24 0;
#X connect 29 0 24 0;
#X connect 30 0 24 0;
#X restore 136 -12 pd ext_mod;
#N canvas 862 440 142 41 lfo1 0;
#N canvas 189 379 1321 271 waveform 0;
#N canvas 874 568 450 300 error 0;
#X obj -9 74 list trim;
#X obj -9 94 print SUBTRACTOR_ERROR;
#X obj -9 33 inlet;
#X obj -9 54 list prepend invalid lfo1 waveform:;
#X connect 0 0 1 0;
#X connect 2 0 3 0;
#X connect 3 0 0 0;
#X restore 440 159 pd error;
#X msg -116 189 color 24;
#X msg -59 189 color 103;
#X msg 12 189 color 24;
#X msg 69 189 color 103;
#X obj 373 111 hradio 15 1 0 6 empty empty empty 0 -8 0 10 -262144
-1 -1 0;
#X msg 133 189 color 24;
#X msg 190 189 color 103;
#X obj 373 73 f;
#X obj 397 73 + 1;
#X msg 490 56 0;
#X msg 499 56 1;
#X msg 508 56 2;
#X obj 565 39 r \$0-lfo1_triangle;
#X obj 681 39 r \$0-lfo1_saw;
#X obj 766 39 r \$0-lfo1_saw2;
#X obj 565 63 s \$0-set_lfo1_triangle;
#X obj 681 82 s \$0-set_lfo1_saw;
#X obj 766 101 s \$0-set_lfo1_saw2;
#X msg 517 56 3;
#X msg 526 56 4;
#X msg 535 56 5;
#X obj 857 39 r \$0-lfo1_square;
#X obj 960 39 r \$0-lfo1_random;
#X obj 1063 39 r \$0-lfo1_random2;
#X obj 857 63 s \$0-set_lfo1_square;
#X obj 960 82 s \$0-set_lfo1_random;
#X obj 1063 101 s \$0-set_lfo1_random2;
#X obj 373 92 mod 6;
#X obj 373 54 r \$0-lfo1_waveform;
#X obj 41 122 route triangle saw saw2 square random random2;
#X obj -87 156 t b b b b b b;
#X obj -2 156 t b b b b b b;
#X obj 85 156 t b b b b b b;
#X msg 257 192 color 24;
#X msg 314 192 color 103;
#X msg 385 192 color 24;
#X msg 442 192 color 103;
#X msg 506 192 color 24;
#X msg 563 192 color 103;
#X obj 171 156 t b b b b b b;
#X obj 254 156 t b b b b b b;
#X obj 343 156 t b b b b b b;
#X obj -116 211 s \$0-lfo1_triangle_;
#X obj 12 211 s \$0-lfo1_saw_;
#X obj 133 211 s \$0-lfo1_saw2_;
#X obj 257 214 s \$0-lfo1_square_;
#X obj 385 214 s \$0-lfo1_random_;
#X obj 506 214 s \$0-lfo1_random2_;
#X obj 373 131 sel 0 1 2 3 4 5;
#X obj 41 100 r \$0-lfo1_waveform_;
#X obj 289 56 loadbang;
#X obj 806 78 bng 15 250 50 0 empty empty empty 17 7 0 10 -262144 -1
-1;
#X connect 1 0 43 0;
#X connect 2 0 43 0;
#X connect 3 0 44 0;
#X connect 4 0 44 0;
#X connect 5 0 49 0;
#X connect 6 0 45 0;
#X connect 7 0 45 0;
#X connect 8 0 9 0;
#X connect 8 0 28 0;
#X connect 9 0 8 1;
#X connect 10 0 8 0;
#X connect 11 0 8 0;
#X connect 12 0 8 0;
#X connect 13 0 10 0;
#X connect 13 0 16 0;
#X connect 14 0 11 0;
#X connect 14 0 17 0;
#X connect 15 0 12 0;
#X connect 15 0 18 0;
#X connect 19 0 8 0;
#X connect 20 0 8 0;
#X connect 21 0 8 0;
#X connect 22 0 25 0;
#X connect 22 0 19 0;
#X connect 23 0 26 0;
#X connect 23 0 20 0;
#X connect 24 0 27 0;
#X connect 24 0 21 0;
#X connect 28 0 5 0;
#X connect 29 0 8 0;
#X connect 30 0 31 0;
#X connect 30 1 32 0;
#X connect 30 2 33 0;
#X connect 30 3 40 0;
#X connect 30 4 41 0;
#X connect 30 5 42 0;
#X connect 30 6 0 0;
#X connect 31 0 2 0;
#X connect 31 1 3 0;
#X connect 31 2 6 0;
#X connect 31 3 34 0;
#X connect 31 4 36 0;
#X connect 31 5 38 0;
#X connect 31 5 16 0;
#X connect 32 0 1 0;
#X connect 32 1 4 0;
#X connect 32 2 6 0;
#X connect 32 3 34 0;
#X connect 32 4 36 0;
#X connect 32 5 38 0;
#X connect 32 5 17 0;
#X connect 33 0 1 0;
#X connect 33 1 3 0;
#X connect 33 2 7 0;
#X connect 33 3 34 0;
#X connect 33 4 36 0;
#X connect 33 5 38 0;
#X connect 33 5 18 0;
#X connect 34 0 46 0;
#X connect 35 0 46 0;
#X connect 36 0 47 0;
#X connect 37 0 47 0;
#X connect 38 0 48 0;
#X connect 39 0 48 0;
#X connect 40 0 1 0;
#X connect 40 1 3 0;
#X connect 40 2 6 0;
#X connect 40 3 35 0;
#X connect 40 4 36 0;
#X connect 40 5 38 0;
#X connect 40 5 25 0;
#X connect 41 0 1 0;
#X connect 41 1 3 0;
#X connect 41 2 6 0;
#X connect 41 3 34 0;
#X connect 41 4 37 0;
#X connect 41 5 36 0;
#X connect 41 5 26 0;
#X connect 41 5 38 0;
#X connect 42 0 1 0;
#X connect 42 1 3 0;
#X connect 42 2 6 0;
#X connect 42 3 34 0;
#X connect 42 4 36 0;
#X connect 42 5 39 0;
#X connect 42 5 27 0;
#X connect 49 0 31 0;
#X connect 49 0 16 0;
#X connect 49 1 32 0;
#X connect 49 1 17 0;
#X connect 49 2 33 0;
#X connect 49 2 18 0;
#X connect 49 3 40 0;
#X connect 49 3 25 0;
#X connect 49 4 41 0;
#X connect 49 4 26 0;
#X connect 49 5 42 0;
#X connect 49 5 27 0;
#X connect 50 0 30 0;
#X connect 51 0 8 0;
#X connect 52 0 18 0;
#X restore 8 5 pd waveform;
#N canvas 33 512 1409 272 dest 0;
#N canvas 874 568 450 300 error 0;
#X obj -9 74 list trim;
#X obj -9 94 print SUBTRACTOR_ERROR;
#X obj -9 33 inlet;
#X obj -9 54 list prepend invalid lfo1 dest:;
#X connect 0 0 1 0;
#X connect 2 0 3 0;
#X connect 3 0 0 0;
#X restore 450 169 pd error;
#X msg -106 199 color 24;
#X msg -49 199 color 103;
#X msg 22 199 color 24;
#X msg 79 199 color 103;
#X obj 383 121 hradio 15 1 0 6 empty empty empty 0 -8 0 10 -262144
-1 -1 0;
#X msg 143 199 color 24;
#X msg 200 199 color 103;
#X obj 383 83 f;
#X obj 407 83 + 1;
#X msg 500 66 0;
#X msg 509 66 1;
#X msg 518 66 2;
#X msg 527 66 3;
#X msg 536 66 4;
#X msg 545 66 5;
#X obj 383 102 mod 6;
#X obj -77 166 t b b b b b b;
#X obj 8 166 t b b b b b b;
#X obj 95 166 t b b b b b b;
#X msg 267 202 color 24;
#X msg 324 202 color 103;
#X msg 395 202 color 24;
#X msg 452 202 color 103;
#X msg 516 202 color 24;
#X msg 573 202 color 103;
#X obj 181 166 t b b b b b b;
#X obj 268 167 t b b b b b b;
#X obj 353 166 t b b b b b b;
#X obj 383 139 sel 0 1 2 3 4 5;
#X obj 575 73 s \$0-set_lfo1_osc12;
#X obj 671 92 s \$0-set_lfo1_osc2;
#X obj 761 111 s \$0-set_lfo1_filter_freq;
#X obj 893 73 s \$0-set_lfo1_fm;
#X obj 971 92 s \$0-set_lfo1_phase;
#X obj 1067 111 s \$0-set_lfo1_mix;
#X obj 383 62 r \$0-lfo1_dest;
#X obj 575 49 r \$0-lfo1_osc12;
#X obj 671 49 r \$0-lfo1_osc2;
#X obj 761 49 r \$0-lfo1_filter_freq;
#X obj 893 49 r \$0-lfo1_fm;
#X obj 971 49 r \$0-lfo1_phase;
#X obj 1067 49 r \$0-lfo1_mix;
#X obj -77 116 r \$0-lfo1_dest_;
#X obj -106 221 s \$0-lfo1_osc12_;
#X obj 22 221 s \$0-lfo1_osc2_;
#X obj 143 221 s \$0-lfo1_filter_freq_;
#X obj 267 224 s \$0-lfo1_fm_;
#X obj 395 224 s \$0-lfo1_phase_;
#X obj 516 224 s \$0-lfo1_mix_;
#X obj -77 138 route osc12 osc2 filter_freq fm phase mix;
#X obj 322 62 loadbang;
#X connect 1 0 44 0;
#X connect 2 0 44 0;
#X connect 3 0 45 0;
#X connect 4 0 45 0;
#X connect 5 0 29 0;
#X connect 6 0 46 0;
#X connect 7 0 46 0;
#X connect 8 0 9 0;
#X connect 8 0 16 0;
#X connect 9 0 8 1;
#X connect 10 0 8 0;
#X connect 11 0 8 0;
#X connect 12 0 8 0;
#X connect 13 0 8 0;
#X connect 14 0 8 0;
#X connect 15 0 8 0;
#X connect 16 0 5 0;
#X connect 17 0 2 0;
#X connect 17 1 3 0;
#X connect 17 2 6 0;
#X connect 17 3 20 0;
#X connect 17 4 22 0;
#X connect 17 5 24 0;
#X connect 17 5 30 0;
#X connect 18 0 1 0;
#X connect 18 1 4 0;
#X connect 18 2 6 0;
#X connect 18 3 20 0;
#X connect 18 4 22 0;
#X connect 18 5 24 0;
#X connect 18 5 31 0;
#X connect 19 0 1 0;
#X connect 19 1 3 0;
#X connect 19 2 7 0;
#X connect 19 3 20 0;
#X connect 19 4 22 0;
#X connect 19 5 24 0;
#X connect 19 5 32 0;
#X connect 20 0 47 0;
#X connect 21 0 47 0;
#X connect 22 0 48 0;
#X connect 23 0 48 0;
#X connect 24 0 49 0;
#X connect 25 0 49 0;
#X connect 26 0 1 0;
#X connect 26 1 3 0;
#X connect 26 2 6 0;
#X connect 26 3 21 0;
#X connect 26 4 22 0;
#X connect 26 5 24 0;
#X connect 26 5 33 0;
#X connect 27 0 1 0;
#X connect 27 1 3 0;
#X connect 27 2 6 0;
#X connect 27 3 20 0;
#X connect 27 4 23 0;
#X connect 27 5 22 0;
#X connect 27 5 34 0;
#X connect 27 5 24 0;
#X connect 28 0 1 0;
#X connect 28 1 3 0;
#X connect 28 2 6 0;
#X connect 28 3 20 0;
#X connect 28 4 22 0;
#X connect 28 5 25 0;
#X connect 28 5 35 0;
#X connect 29 0 17 0;
#X connect 29 0 30 0;
#X connect 29 1 18 0;
#X connect 29 1 31 0;
#X connect 29 2 19 0;
#X connect 29 2 32 0;
#X connect 29 3 26 0;
#X connect 29 3 33 0;
#X connect 29 4 27 0;
#X connect 29 4 34 0;
#X connect 29 5 28 0;
#X connect 29 5 35 0;
#X connect 36 0 8 0;
#X connect 37 0 10 0;
#X connect 37 0 30 0;
#X connect 38 0 11 0;
#X connect 38 0 31 0;
#X connect 39 0 12 0;
#X connect 39 0 32 0;
#X connect 40 0 13 0;
#X connect 40 0 33 0;
#X connect 41 0 14 0;
#X connect 41 0 34 0;
#X connect 42 0 15 0;
#X connect 42 0 35 0;
#X connect 43 0 50 0;
#X connect 50 0 17 0;
#X connect 50 1 18 0;
#X connect 50 2 19 0;
#X connect 50 3 26 0;
#X connect 50 4 27 0;
#X connect 50 5 28 0;
#X connect 50 6 0 0;
#X connect 51 0 8 0;
#X restore 82 5 pd dest;
#X restore 205 -12 pd lfo1;
#N canvas 399 472 249 165 range 0;
#X obj 16 73 f;
#X obj 145 73 f;
#X obj 145 96 + 1;
#X obj 16 95 - 1;
#X obj 16 118 s \$0-range_;
#X obj 145 119 s \$0-range_;
#X obj 145 34 r \$0-range_up;
#X obj 31 35 r \$0-range;
#X obj 16 16 r \$0-range_down;
#X connect 0 0 3 0;
#X connect 1 0 2 0;
#X connect 2 0 5 0;
#X connect 3 0 4 0;
#X connect 6 0 1 0;
#X connect 7 0 0 1;
#X connect 7 0 1 1;
#X connect 8 0 0 0;
#X restore 2 8 pd range;
#N canvas 212 163 622 358 preset 0;
#X msg -165 54 Default Bass_Guitar Warm_Pad Obie_Brass Juicer_II Dead_Soul
Electric_Piano Bread_Bass;
#X obj -165 11 r \$0-current_presets;
#X obj -486 -19 r \$0-patch_up;
#X obj -582 -19 r \$0-patch_down;
#X obj -278 -66 r \$0-title_;
#X obj -165 77 list length;
#X msg -251 -25 presets;
#X obj -251 -5 s \$0-presets;
#X obj -165 33 t b a;
#X msg -278 54 Default Bass_Guitar Warm_Pad Obie_Brass Juicer_II Dead_Soul
Electric_Piano Bread_Bass;
#X obj -437 234 lindexget;
#N canvas 0 215 280 454 liter 0;
#X obj -365 -353 list split 1;
#X obj -365 -517 t a a;
#X obj -338 -496 list length;
#X obj -365 -457 t a a;
#X obj -338 -436 list length;
#X obj -352 -310 list;
#X obj -392 -332 t b a;
#X obj -338 -414 swap;
#X obj -338 -387 -;
#X obj -317 -249 outlet INDEX;
#X obj -411 -249 outlet ELEMENT;
#X obj -365 -537 inlet LIST_TO_ITERATE;
#X obj -317 -324 t a a;
#X obj -317 -282 spigot;
#X obj -290 -302 <;
#X connect 0 0 6 0;
#X connect 0 1 5 1;
#X connect 1 0 3 0;
#X connect 1 1 2 0;
#X connect 2 0 7 1;
#X connect 2 0 14 1;
#X connect 3 0 0 0;
#X connect 3 1 4 0;
#X connect 4 0 7 0;
#X connect 5 0 3 0;
#X connect 6 0 5 0;
#X connect 6 1 10 0;
#X connect 7 0 8 0;
#X connect 7 1 8 1;
#X connect 8 0 12 0;
#X connect 11 0 1 0;
#X connect 12 0 13 0;
#X connect 12 1 14 0;
#X connect 13 0 9 0;
#X connect 14 0 13 1;
#X restore -278 74 pd liter;
#X obj -278 30 t b a;
#X obj -278 -44 t a b;
#X obj -278 116 sel symbol;
#X obj -221 97 symbol;
#X obj -278 97 symbol;
#X obj -248 136 f;
#X obj -263 175 f;
#X obj -375 -49 lprepend set;
#X msg -357 -13 Warm_Pad;
#X msg -437 54 Default Bass_Guitar Warm_Pad Obie_Brass Juicer_II Dead_Soul
Electric_Piano Bread_Bass;
#X obj -263 217 mod;
#X obj -263 195 + 1;
#X obj -288 175 f;
#X obj -288 195 - 1;
#X obj -582 2 t b b b;
#X obj -486 2 t b b b;
#X obj -437 261 s \$0-open;
#X connect 0 0 5 0;
#X connect 1 0 8 0;
#X connect 2 0 27 0;
#X connect 3 0 26 0;
#X connect 4 0 13 0;
#X connect 4 0 19 0;
#X connect 5 0 22 1;
#X connect 6 0 7 0;
#X connect 8 0 0 0;
#X connect 8 1 0 0;
#X connect 8 1 9 0;
#X connect 8 1 21 0;
#X connect 9 0 11 0;
#X connect 10 0 28 0;
#X connect 11 0 16 0;
#X connect 11 1 17 1;
#X connect 12 0 9 0;
#X connect 12 1 15 0;
#X connect 13 0 12 0;
#X connect 13 1 6 0;
#X connect 14 0 17 0;
#X connect 15 0 14 1;
#X connect 16 0 14 0;
#X connect 17 0 18 1;
#X connect 17 0 24 1;
#X connect 18 0 23 0;
#X connect 19 0 20 0;
#X connect 20 0 13 0;
#X connect 21 0 10 0;
#X connect 22 0 10 1;
#X connect 23 0 22 0;
#X connect 24 0 25 0;
#X connect 25 0 22 0;
#X connect 26 0 21 0;
#X connect 26 1 24 0;
#X connect 26 2 20 0;
#X connect 27 0 21 0;
#X connect 27 1 18 0;
#X connect 27 2 20 0;
#X restore 1 -31 pd preset;
#N canvas 713 424 450 300 osc1 0;
#N canvas 493 422 746 209 mode 0;
#N canvas 874 568 450 300 error 0;
#X obj -9 74 list trim;
#X obj -9 94 print SUBTRACTOR_ERROR;
#X obj -9 33 inlet;
#X obj -9 54 list prepend invalid osc1 mode:;
#X connect 0 0 1 0;
#X connect 2 0 3 0;
#X connect 3 0 0 0;
#X restore 330 131 pd error;
#X msg 8 154 color 24;
#X msg 65 154 color 103;
#X msg 136 154 color 24;
#X msg 193 154 color 103;
#X obj 344 90 hradio 15 1 0 3 empty empty empty 0 -8 0 10 -262144 -1
-1 0;
#X obj 165 125 t b b b;
#X obj 220 125 t b b b;
#X msg 257 154 color 24;
#X msg 314 154 color 103;
#X obj 275 125 t b b b;
#X obj 344 108 sel 0 1 2;
#X obj 344 52 f;
#X obj 368 52 + 1;
#X obj 344 71 mod 3;
#X msg 425 35 0;
#X msg 434 35 1;
#X msg 443 35 2;
#X obj 270 35 loadbang;
#X obj 570 18 r \$0-osc1_-;
#X obj 473 18 r \$0-osc1_x;
#X obj 644 18 r \$0-osc1_o;
#X obj 473 42 s \$0-set_osc1_x;
#X obj 570 61 s \$0-set_osc1_-;
#X obj 644 80 s \$0-set_osc1_o;
#X obj 344 15 r \$0-osc1_mode;
#X obj 165 81 r \$0-osc1_mode_;
#X obj 8 176 s \$0-osc1_x_;
#X obj 136 176 s \$0-osc1_-_;
#X obj 257 176 s \$0-osc1_o_;
#X obj 165 101 route x - o;
#X obj 456 184 s \$0-osc1_mode#;
#X msg 480 160 o;
#X msg 453 160 x;
#X msg 424 161 -;
#X connect 1 0 27 0;
#X connect 2 0 27 0;
#X connect 3 0 28 0;
#X connect 4 0 28 0;
#X connect 5 0 11 0;
#X connect 6 0 2 0;
#X connect 6 1 3 0;
#X connect 6 2 8 0;
#X connect 6 2 22 0;
#X connect 6 2 34 0;
#X connect 7 0 1 0;
#X connect 7 1 4 0;
#X connect 7 2 8 0;
#X connect 7 2 23 0;
#X connect 7 2 33 0;
#X connect 8 0 29 0;
#X connect 9 0 29 0;
#X connect 10 0 1 0;
#X connect 10 1 3 0;
#X connect 10 2 9 0;
#X connect 10 2 24 0;
#X connect 10 2 32 0;
#X connect 11 0 6 0;
#X connect 11 0 22 0;
#X connect 11 1 7 0;
#X connect 11 1 23 0;
#X connect 11 2 10 0;
#X connect 11 2 24 0;
#X connect 12 0 13 0;
#X connect 12 0 14 0;
#X connect 13 0 12 1;
#X connect 14 0 5 0;
#X connect 15 0 12 0;
#X connect 16 0 12 0;
#X connect 17 0 12 0;
#X connect 18 0 12 0;
#X connect 19 0 16 0;
#X connect 19 0 23 0;
#X connect 20 0 15 0;
#X connect 20 0 22 0;
#X connect 21 0 17 0;
#X connect 21 0 24 0;
#X connect 25 0 12 0;
#X connect 26 0 30 0;
#X connect 30 0 6 0;
#X connect 30 1 7 0;
#X connect 30 2 10 0;
#X connect 30 3 0 0;
#X connect 32 0 31 0;
#X connect 33 0 31 0;
#X connect 34 0 31 0;
#X restore 11 11 pd mode;
#N canvas 817 498 450 300 waveform 0;
#X obj 10 68 f;
#X obj 139 68 f;
#X obj 139 91 + 1;
#X obj 10 90 - 1;
#X obj 10 11 r \$0-osc1_waveform_down;
#X obj 139 29 r \$0-osc1_waveform_up;
#X obj 25 30 r \$0-osc1_waveform;
#X obj 10 113 s \$0-osc1_waveform_;
#X obj 139 114 s \$0-osc1_waveform_;
#X connect 0 0 3 0;
#X connect 1 0 2 0;
#X connect 2 0 8 0;
#X connect 3 0 7 0;
#X connect 4 0 0 0;
#X connect 5 0 1 0;
#X connect 6 0 0 1;
#X connect 6 0 1 1;
#X restore 67 11 pd waveform;
#N canvas 817 498 450 300 oct 0;
#X obj 10 68 f;
#X obj 122 68 f;
#X obj 122 91 + 1;
#X obj 10 90 - 1;
#X obj 10 11 r \$0-osc1_oct_down;
#X obj 25 30 r \$0-osc1_oct;
#X obj 122 29 r \$0-osc1_oct_up;
#X obj 10 113 s \$0-osc1_oct_;
#X obj 122 114 s \$0-osc1_oct_;
#X connect 0 0 3 0;
#X connect 1 0 2 0;
#X connect 2 0 8 0;
#X connect 3 0 7 0;
#X connect 4 0 0 0;
#X connect 5 0 0 1;
#X connect 5 0 1 1;
#X connect 6 0 1 0;
#X restore 140 11 pd oct;
#N canvas 817 498 450 300 semi 0;
#X obj 10 68 f;
#X obj 139 68 f;
#X obj 139 91 + 1;
#X obj 10 90 - 1;
#X obj 10 11 r \$0-osc1_semi_down;
#X obj 25 30 r \$0-osc1_semi;
#X obj 139 29 r \$0-osc1_semi_up;
#X obj 10 113 s \$0-osc1_semi_;
#X obj 139 114 s \$0-osc1_semi_;
#X connect 0 0 3 0;
#X connect 1 0 2 0;
#X connect 2 0 8 0;
#X connect 3 0 7 0;
#X connect 4 0 0 0;
#X connect 5 0 0 1;
#X connect 5 0 1 1;
#X connect 6 0 1 0;
#X restore 184 11 pd semi;
#N canvas 817 498 450 300 cent 0;
#X obj 10 68 f;
#X obj 139 68 f;
#X obj 139 91 + 1;
#X obj 10 90 - 1;
#X obj 25 30 r \$0-osc1_cent;
#X obj 10 11 r \$0-osc1_cent_down;
#X obj 139 29 r \$0-osc1_cent_up;
#X obj 10 113 s \$0-osc1_cent_;
#X obj 139 114 s \$0-osc1_cent_;
#X connect 0 0 3 0;
#X connect 1 0 2 0;
#X connect 2 0 8 0;
#X connect 3 0 7 0;
#X connect 4 0 0 1;
#X connect 4 0 1 1;
#X connect 5 0 0 0;
#X connect 6 0 1 0;
#X restore 234 11 pd cent;
#X restore 253 -12 pd osc1;
#N canvas 713 424 450 300 osc2 0;
#N canvas 493 422 762 233 mode 0;
#N canvas 874 568 450 300 error 0;
#X obj -9 74 list trim;
#X obj -9 94 print SUBTRACTOR_ERROR;
#X obj -9 33 inlet;
#X obj -9 54 list prepend invalid osc2 mode:;
#X connect 0 0 1 0;
#X connect 2 0 3 0;
#X connect 3 0 0 0;
#X restore 330 131 pd error;
#X msg 8 154 color 24;
#X msg 65 154 color 103;
#X msg 136 154 color 24;
#X msg 193 154 color 103;
#X obj 344 90 hradio 15 1 0 3 empty empty empty 0 -8 0 10 -262144 -1
-1 0;
#X obj 165 125 t b b b;
#X obj 220 125 t b b b;
#X msg 257 154 color 24;
#X msg 314 154 color 103;
#X obj 275 125 t b b b;
#X obj 344 108 sel 0 1 2;
#X obj 344 52 f;
#X obj 368 52 + 1;
#X obj 344 71 mod 3;
#X msg 425 35 0;
#X msg 434 35 1;
#X msg 443 35 2;
#X obj 270 35 loadbang;
#X obj 165 101 route x - o;
#X obj 344 15 r \$0-osc2_mode;
#X obj 473 18 r \$0-osc2_x;
#X obj 473 42 s \$0-set_osc2_x;
#X obj 570 18 r \$0-osc2_-;
#X obj 644 18 r \$0-osc2_o;
#X obj 570 61 s \$0-set_osc2_-;
#X obj 644 80 s \$0-set_osc2_o;
#X obj 165 79 r \$0-osc2_mode_;
#X obj 8 176 s \$0-osc2_x_;
#X obj 136 176 s \$0-osc2_-_;
#X obj 257 176 s \$0-osc2_o_;
#X msg 464 131 o;
#X msg 437 131 x;
#X msg 408 132 -;
#X obj 440 155 s \$0-osc2_mode#;
#X connect 1 0 28 0;
#X connect 2 0 28 0;
#X connect 3 0 29 0;
#X connect 4 0 29 0;
#X connect 5 0 11 0;
#X connect 6 0 2 0;
#X connect 6 1 3 0;
#X connect 6 2 8 0;
#X connect 6 2 22 0;
#X connect 6 2 33 0;
#X connect 7 0 1 0;
#X connect 7 1 4 0;
#X connect 7 2 8 0;
#X connect 7 2 25 0;
#X connect 7 2 32 0;
#X connect 8 0 30 0;
#X connect 9 0 30 0;
#X connect 10 0 1 0;
#X connect 10 1 3 0;
#X connect 10 2 9 0;
#X connect 10 2 26 0;
#X connect 10 2 31 0;
#X connect 11 0 6 0;
#X connect 11 0 22 0;
#X connect 11 1 7 0;
#X connect 11 1 25 0;
#X connect 11 2 10 0;
#X connect 11 2 26 0;
#X connect 12 0 13 0;
#X connect 12 0 14 0;
#X connect 13 0 12 1;
#X connect 14 0 5 0;
#X connect 15 0 12 0;
#X connect 16 0 12 0;
#X connect 17 0 12 0;
#X connect 18 0 12 0;
#X connect 19 0 6 0;
#X connect 19 1 7 0;
#X connect 19 2 10 0;
#X connect 19 3 0 0;
#X connect 20 0 12 0;
#X connect 21 0 15 0;
#X connect 21 0 22 0;
#X connect 23 0 16 0;
#X connect 23 0 25 0;
#X connect 24 0 17 0;
#X connect 24 0 26 0;
#X connect 27 0 19 0;
#X connect 31 0 34 0;
#X connect 32 0 34 0;
#X connect 33 0 34 0;
#X restore 11 11 pd mode;
#N canvas 817 498 450 300 waveform 0;
#X obj 10 68 f;
#X obj 139 68 f;
#X obj 139 91 + 1;
#X obj 10 90 - 1;
#X obj 10 11 r \$0-osc2_waveform_down;
#X obj 25 30 r \$0-osc2_waveform;
#X obj 10 113 s \$0-osc2_waveform_;
#X obj 139 114 s \$0-osc2_waveform_;
#X obj 139 29 r \$0-osc2_waveform_up;
#X connect 0 0 3 0;
#X connect 1 0 2 0;
#X connect 2 0 7 0;
#X connect 3 0 6 0;
#X connect 4 0 0 0;
#X connect 5 0 0 1;
#X connect 5 0 1 1;
#X connect 8 0 1 0;
#X restore 67 11 pd waveform;
#N canvas 817 498 450 300 oct 0;
#X obj 10 68 f;
#X obj 122 68 f;
#X obj 122 91 + 1;
#X obj 10 90 - 1;
#X obj 10 11 r \$0-osc2_oct_down;
#X obj 25 30 r \$0-osc2_oct;
#X obj 10 113 s \$0-osc2_oct_;
#X obj 122 114 s \$0-osc2_oct_;
#X obj 122 29 r \$0-osc2_oct_up;
#X connect 0 0 3 0;
#X connect 1 0 2 0;
#X connect 2 0 7 0;
#X connect 3 0 6 0;
#X connect 4 0 0 0;
#X connect 5 0 0 1;
#X connect 5 0 1 1;
#X connect 8 0 1 0;
#X restore 140 11 pd oct;
#N canvas 817 498 450 300 semi 0;
#X obj 10 68 f;
#X obj 139 68 f;
#X obj 139 91 + 1;
#X obj 10 90 - 1;
#X obj 10 11 r \$0-osc2_semi_down;
#X obj 25 30 r \$0-osc2_semi;
#X obj 10 113 s \$0-osc2_semi_;
#X obj 139 29 r \$0-osc2_semi_up;
#X obj 139 114 s \$0-osc2_semi_;
#X connect 0 0 3 0;
#X connect 1 0 2 0;
#X connect 2 0 8 0;
#X connect 3 0 6 0;
#X connect 4 0 0 0;
#X connect 5 0 0 1;
#X connect 5 0 1 1;
#X connect 7 0 1 0;
#X restore 184 11 pd semi;
#N canvas 817 498 450 300 cent 0;
#X obj 10 68 f;
#X obj 139 68 f;
#X obj 139 91 + 1;
#X obj 10 90 - 1;
#X obj 10 11 r \$0-osc2_cent_down;
#X obj 25 30 r \$0-osc2_cent;
#X obj 139 29 r \$0-osc2_cent_up;
#X obj 139 114 s \$0-osc2_cent_;
#X obj 10 113 s \$0-osc2_cent_;
#X connect 0 0 3 0;
#X connect 1 0 2 0;
#X connect 2 0 7 0;
#X connect 3 0 8 0;
#X connect 4 0 0 0;
#X connect 5 0 0 1;
#X connect 5 0 1 1;
#X connect 6 0 1 0;
#X restore 234 11 pd cent;
#X restore 301 -12 pd osc2;
#N canvas 100 416 1301 275 lfo2 0;
#N canvas 874 568 450 300 error 0;
#X obj -9 74 list trim;
#X obj -9 94 print SUBTRACTOR_ERROR;
#X obj -9 33 inlet;
#X obj -9 54 list prepend invalid lfo2 dest:;
#X connect 0 0 1 0;
#X connect 2 0 3 0;
#X connect 3 0 0 0;
#X restore 460 179 pd error;
#X msg -96 209 color 24;
#X msg -39 209 color 103;
#X msg 32 209 color 24;
#X msg 89 209 color 103;
#X obj 393 131 hradio 15 1 0 4 empty empty empty 0 -8 0 10 -262144
-1 -1 0;
#X msg 153 209 color 24;
#X msg 210 209 color 103;
#X obj 393 93 f;
#X obj 417 93 + 1;
#X msg 510 76 0;
#X msg 519 76 1;
#X msg 528 76 2;
#X msg 537 76 3;
#X msg 277 212 color 24;
#X msg 334 212 color 103;
#X obj 332 72 loadbang;
#X obj -67 126 r \$0-lfo2_dest_;
#X obj 393 72 r \$0-lfo2_dest;
#X obj 585 59 r \$0-lfo2_osc12;
#X obj 681 59 r \$0-lfo2_phase;
#X obj 585 83 s \$0-set_lfo2_osc12;
#X obj 771 59 r \$0-lfo2_filter_freq2;
#X obj 903 59 r \$0-lfo2_amp;
#X obj 393 149 sel 0 1 2 3;
#X obj 393 112 mod 4;
#X obj 681 102 s \$0-set_lfo2_phase;
#X obj 771 121 s \$0-set_lfo2_filter_freq2;
#X obj 903 83 s \$0-set_lfo2_amp;
#X obj -96 231 s \$0-lfo2_osc12_;
#X obj 32 231 s \$0-lfo2_phase_;
#X obj 153 231 s \$0-lfo2_filter_freq2_;
#X obj 277 234 s \$0-lfo2_amp_;
#X obj -67 148 route osc12 phase filter_freq2 amp;
#X obj -67 176 t b b b b;
#X obj 18 176 t b b b b;
#X obj 105 176 t b b b b;
#X obj 191 176 t b b b b;
#X connect 1 0 29 0;
#X connect 2 0 29 0;
#X connect 3 0 30 0;
#X connect 4 0 30 0;
#X connect 5 0 24 0;
#X connect 6 0 31 0;
#X connect 7 0 31 0;
#X connect 8 0 9 0;
#X connect 8 0 25 0;
#X connect 9 0 8 1;
#X connect 10 0 8 0;
#X connect 11 0 8 0;
#X connect 12 0 8 0;
#X connect 13 0 8 0;
#X connect 14 0 32 0;
#X connect 15 0 32 0;
#X connect 16 0 8 0;
#X connect 17 0 33 0;
#X connect 18 0 8 0;
#X connect 19 0 10 0;
#X connect 19 0 21 0;
#X connect 20 0 11 0;
#X connect 20 0 26 0;
#X connect 22 0 12 0;
#X connect 22 0 27 0;
#X connect 23 0 13 0;
#X connect 23 0 28 0;
#X connect 24 0 21 0;
#X connect 24 0 34 0;
#X connect 24 1 26 0;
#X connect 24 1 35 0;
#X connect 24 2 27 0;
#X connect 24 2 36 0;
#X connect 24 3 28 0;
#X connect 24 3 37 0;
#X connect 25 0 5 0;
#X connect 33 0 34 0;
#X connect 33 1 35 0;
#X connect 33 2 36 0;
#X connect 33 3 37 0;
#X connect 33 4 0 0;
#X connect 34 0 2 0;
#X connect 34 1 3 0;
#X connect 34 2 6 0;
#X connect 34 3 14 0;
#X connect 34 3 21 0;
#X connect 35 0 1 0;
#X connect 35 1 4 0;
#X connect 35 2 6 0;
#X connect 35 3 14 0;
#X connect 35 3 26 0;
#X connect 36 0 1 0;
#X connect 36 1 3 0;
#X connect 36 2 7 0;
#X connect 36 3 14 0;
#X connect 36 3 27 0;
#X connect 37 0 1 0;
#X connect 37 1 3 0;
#X connect 37 2 6 0;
#X connect 37 3 15 0;
#X connect 37 3 28 0;
#X restore 205 8 pd lfo2;
#N canvas 54 457 1379 264 mod_env 0;
#N canvas 874 568 450 300 error 0;
#X obj -9 74 list trim;
#X obj -9 94 print SUBTRACTOR_ERROR;
#X obj -9 33 inlet;
#X obj -9 54 list prepend invalid mod_env dest:;
#X connect 0 0 1 0;
#X connect 2 0 3 0;
#X connect 3 0 0 0;
#X restore 460 153 pd error;
#X msg -96 183 color 24;
#X msg -39 183 color 103;
#X msg 32 183 color 24;
#X msg 89 183 color 103;
#X obj 393 105 hradio 15 1 0 6 empty empty empty 0 -8 0 10 -262144
-1 -1 0;
#X msg 153 183 color 24;
#X msg 210 183 color 103;
#X obj 393 67 f;
#X obj 417 67 + 1;
#X msg 510 50 0;
#X msg 519 50 1;
#X msg 528 50 2;
#X msg 537 50 3;
#X msg 546 50 4;
#X msg 555 50 5;
#X obj 393 86 mod 6;
#X obj -67 150 t b b b b b b;
#X obj 18 150 t b b b b b b;
#X obj 105 150 t b b b b b b;
#X msg 277 186 color 24;
#X msg 334 186 color 103;
#X msg 405 186 color 24;
#X msg 462 186 color 103;
#X msg 526 186 color 24;
#X msg 583 186 color 103;
#X obj 191 150 t b b b b b b;
#X obj 276 150 t b b b b b b;
#X obj 363 150 t b b b b b b;
#X obj 393 123 sel 0 1 2 3 4 5;
#X obj 332 46 loadbang;
#X obj -67 100 r \$0-mod_env_dest_;
#X obj 393 46 r \$0-mod_env_dest;
#X obj 700 32 r \$0-mod_env_osc2;
#X obj 922 32 r \$0-mod_env_fm;
#X obj 1000 32 r \$0-mod_env_phase;
#X obj 1096 32 r \$0-mod_env_mix;
#X obj 700 75 s \$0-set_mod_env_osc2;
#X obj 922 56 s \$0-set_mod_env_fm;
#X obj 1000 75 s \$0-set_mod_env_phase;
#X obj 1096 94 s \$0-set_mod_env_mix;
#X obj 32 205 s \$0-mod_env_osc2_;
#X obj 278 227 s \$0-mod_env_fm_;
#X obj 405 208 s \$0-mod_env_phase_;
#X obj 526 208 s \$0-mod_env_mix_;
#X obj 585 32 r \$0-mod_env_osc1;
#X obj 585 57 s \$0-set_mod_env_osc1;
#X obj -96 205 s \$0-mod_env_osc1_;
#X obj 791 11 r \$0-mod_env_filter_freq2;
#X obj 790 94 s \$0-set_mod_env_filter_freq2;
#X obj 153 205 s \$0-mod_env_filter_freq2_;
#X obj -67 122 route osc1 osc2 filter_freq2 fm phase mix;
#X connect 1 0 47 0;
#X connect 2 0 47 0;
#X connect 3 0 41 0;
#X connect 4 0 41 0;
#X connect 5 0 29 0;
#X connect 6 0 50 0;
#X connect 7 0 50 0;
#X connect 8 0 9 0;
#X connect 8 0 16 0;
#X connect 9 0 8 1;
#X connect 10 0 8 0;
#X connect 11 0 8 0;
#X connect 12 0 8 0;
#X connect 13 0 8 0;
#X connect 14 0 8 0;
#X connect 15 0 8 0;
#X connect 16 0 5 0;
#X connect 17 0 2 0;
#X connect 17 1 3 0;
#X connect 17 2 6 0;
#X connect 17 3 20 0;
#X connect 17 4 22 0;
#X connect 17 5 24 0;
#X connect 17 5 46 0;
#X connect 18 0 1 0;
#X connect 18 1 4 0;
#X connect 18 2 6 0;
#X connect 18 3 20 0;
#X connect 18 4 22 0;
#X connect 18 5 24 0;
#X connect 18 5 37 0;
#X connect 19 0 1 0;
#X connect 19 1 3 0;
#X connect 19 2 7 0;
#X connect 19 3 20 0;
#X connect 19 4 22 0;
#X connect 19 5 24 0;
#X connect 19 5 49 0;
#X connect 20 0 42 0;
#X connect 21 0 42 0;
#X connect 22 0 43 0;
#X connect 23 0 43 0;
#X connect 24 0 44 0;
#X connect 25 0 44 0;
#X connect 26 0 1 0;
#X connect 26 1 3 0;
#X connect 26 2 6 0;
#X connect 26 3 21 0;
#X connect 26 4 22 0;
#X connect 26 5 24 0;
#X connect 26 5 38 0;
#X connect 27 0 1 0;
#X connect 27 1 3 0;
#X connect 27 2 6 0;
#X connect 27 3 20 0;
#X connect 27 4 23 0;
#X connect 27 5 22 0;
#X connect 27 5 39 0;
#X connect 28 0 1 0;
#X connect 28 1 3 0;
#X connect 28 2 6 0;
#X connect 28 3 20 0;
#X connect 28 4 22 0;
#X connect 28 5 25 0;
#X connect 28 5 40 0;
#X connect 29 0 17 0;
#X connect 29 0 46 0;
#X connect 29 1 18 0;
#X connect 29 1 37 0;
#X connect 29 2 19 0;
#X connect 29 2 49 0;
#X connect 29 3 26 0;
#X connect 29 3 38 0;
#X connect 29 4 27 0;
#X connect 29 4 39 0;
#X connect 29 5 28 0;
#X connect 29 5 40 0;
#X connect 30 0 8 0;
#X connect 31 0 51 0;
#X connect 32 0 8 0;
#X connect 33 0 11 0;
#X connect 33 0 37 0;
#X connect 34 0 13 0;
#X connect 34 0 38 0;
#X connect 35 0 14 0;
#X connect 35 0 39 0;
#X connect 36 0 15 0;
#X connect 36 0 40 0;
#X connect 45 0 10 0;
#X connect 45 0 46 0;
#X connect 48 0 12 0;
#X connect 48 0 49 0;
#X connect 51 0 17 0;
#X connect 51 1 18 0;
#X connect 51 2 19 0;
#X connect 51 3 26 0;
#X connect 51 4 27 0;
#X connect 51 5 28 0;
#X connect 51 6 0 0;
#X restore 349 -12 pd mod_env;
#N canvas 19 426 1330 287 filter1 0;
#N canvas 874 568 450 300 error 0;
#X obj -9 74 list trim;
#X obj -9 94 print SUBTRACTOR_ERROR;
#X obj -9 33 inlet;
#X obj -9 54 list prepend invalid filter type:;
#X connect 0 0 1 0;
#X connect 2 0 3 0;
#X connect 3 0 0 0;
#X restore 470 163 pd error;
#X msg -86 193 color 24;
#X msg -29 193 color 103;
#X msg 42 193 color 24;
#X msg 99 193 color 103;
#X obj 403 115 hradio 15 1 0 6 empty empty empty 0 -8 0 10 -262144
-1 -1 0;
#X msg 163 193 color 24;
#X msg 220 193 color 103;
#X obj 403 77 f;
#X obj 427 77 + 1;
#X msg 520 60 0;
#X msg 529 60 1;
#X msg 538 60 2;
#X msg 547 60 3;
#X msg 556 60 4;
#X msg 287 196 color 24;
#X msg 344 196 color 103;
#X msg 415 196 color 24;
#X msg 472 196 color 103;
#X obj 342 56 loadbang;
#X obj 403 133 sel 0 1 2 3 4;
#X obj 403 96 mod 5;
#X obj -57 160 t b b b b b;
#X obj 28 160 t b b b b b;
#X obj 115 160 t b b b b b;
#X obj 201 160 t b b b b b;
#X obj 286 160 t b b b b b;
#X obj -57 132 route notch hp bp lp lp24;
#X obj 403 56 r \$0-filter_type;
#X obj -57 110 r \$0-filter_type_;
#X obj 595 42 r \$0-filter_notch;
#X obj 703 43 r \$0-filter_hp;
#X obj 793 43 r \$0-filter_bp;
#X obj 884 43 r \$0-filter_lp;
#X obj 976 43 r \$0-filter_lp24;
#X obj 595 67 s \$0-set_filter_notch;
#X obj 703 86 s \$0-set_filter_hp;
#X obj 793 105 s \$0-set_filter_bp;
#X obj 883 67 s \$0-set_filter_lp;
#X obj 976 86 s \$0-set_filter_lp24;
#X obj -86 215 s \$0-filter_notch_;
#X obj 42 215 s \$0-filter_hp_;
#X obj 163 215 s \$0-filter_bp_;
#X obj 287 218 s \$0-filter_lp_;
#X obj 415 218 s \$0-filter_lp24_;
#X connect 1 0 40 0;
#X connect 2 0 40 0;
#X connect 3 0 41 0;
#X connect 4 0 41 0;
#X connect 5 0 20 0;
#X connect 6 0 42 0;
#X connect 7 0 42 0;
#X connect 8 0 9 0;
#X connect 8 0 21 0;
#X connect 9 0 8 1;
#X connect 10 0 8 0;
#X connect 11 0 8 0;
#X connect 12 0 8 0;
#X connect 13 0 8 0;
#X connect 14 0 8 0;
#X connect 15 0 43 0;
#X connect 16 0 43 0;
#X connect 17 0 44 0;
#X connect 18 0 44 0;
#X connect 19 0 8 0;
#X connect 20 0 22 0;
#X connect 20 0 35 0;
#X connect 20 1 23 0;
#X connect 20 1 36 0;
#X connect 20 2 24 0;
#X connect 20 2 37 0;
#X connect 20 3 25 0;
#X connect 20 3 38 0;
#X connect 20 4 26 0;
#X connect 20 4 39 0;
#X connect 21 0 5 0;
#X connect 22 0 2 0;
#X connect 22 1 3 0;
#X connect 22 2 6 0;
#X connect 22 3 15 0;
#X connect 22 4 17 0;
#X connect 22 4 35 0;
#X connect 23 0 1 0;
#X connect 23 1 4 0;
#X connect 23 2 6 0;
#X connect 23 3 15 0;
#X connect 23 4 17 0;
#X connect 23 4 36 0;
#X connect 24 0 1 0;
#X connect 24 1 3 0;
#X connect 24 2 7 0;
#X connect 24 3 15 0;
#X connect 24 4 17 0;
#X connect 24 4 37 0;
#X connect 25 0 1 0;
#X connect 25 1 3 0;
#X connect 25 2 6 0;
#X connect 25 3 16 0;
#X connect 25 4 17 0;
#X connect 25 4 38 0;
#X connect 26 0 1 0;
#X connect 26 1 3 0;
#X connect 26 2 6 0;
#X connect 26 3 15 0;
#X connect 26 4 18 0;
#X connect 26 4 39 0;
#X connect 27 0 22 0;
#X connect 27 1 23 0;
#X connect 27 2 24 0;
#X connect 27 3 25 0;
#X connect 27 4 26 0;
#X connect 27 5 0 0;
#X connect 28 0 8 0;
#X connect 29 0 27 0;
#X connect 30 0 10 0;
#X connect 30 0 35 0;
#X connect 31 0 11 0;
#X connect 31 0 36 0;
#X connect 32 0 12 0;
#X connect 32 0 37 0;
#X connect 33 0 13 0;
#X connect 33 0 38 0;
#X connect 34 0 14 0;
#X connect 34 0 39 0;
#X restore 350 8 pd filter1;
#X restore 151 334 pd gui_wrappers;
#X obj 216 91 r \$0-title_;
#N canvas 705 427 419 421 \$0-default 0;
#X obj 24 22 r \$0-default;
#X obj 24 376 outlet;
#X obj 24 42 b;
#X msg 24 62 title Default \, mode retrig \, portamento 0 \, lo_bw
0 \, polyphony 8 \, ext_mod aftertouch \, ext_filter_freq 0 \, ext_filter_res
0 \, ext_lfo 0 \, ext_phase 0 \, range 12 \, bend 64 \, mod 0 \, mod_filter_freq
0 \, mod_filter_res 0 \, mod_lfo 0 \, mod_phase 0 \, mod_fm 0 \, osc1_phase
0 \, osc1_mode o \, osc1_waveform 1 \, osc1_oct 4 \, osc1_semi 0 \,
osc1_cent 0 \, osc1_kbd 0 \, fm 0 \, osc2 1 \, osc2_phase 0 \, osc2_mode
o \, osc2_waveform 0 \, osc2_oct 5 \, osc2_semi 0 \, osc2_cent 0 \,
osc2_kbd 0 \, mix 0.5 \, ring_mod 0 \, noise 0 \, noise_decay 0 \,
noise_color 0 \, noise_level 0 \, lfo1_sync 0 \, lfo1_rate 0 \, lfo1_amount
0 \, lfo1_waveform triangle \, lfo1_dest osc12 \, mod_env_a 5 \, mod_env_d
30 \, mod_env_s 127 \, mod_env_r 20 \, mod_env_inv 0 \, mod_env_amt
0 \, mod_env_dest osc1 \, lfo2_dest osc12 \, lfo2_rate 0 \, lfo2_amount
0 \, lfo2_kbd 0 \, lfo2_delay 0 \, filter_freq 1000 \, filter_res 0
\, filter_type lp \, filter_kbd 0 \, filter_link 0 \, filter2 0 \,
filter_freq2 0 \, filter_res2 0 \, level 0.7 \, filter_env_a 5 \, filter_env_d
30 \, filter_env_s 127 \, filter_env_r 20 \, filter_env_amt 0 \, filter_env_inv
0 \, amp_env_a 5 \, amp_env_d 30 \, amp_env_s 127 \, amp_env_r 20 \,
velocity_amp 0 \, velocity_fm 0 \, velocity_mod_env 0 \, velocity_phase
0 \, velocity_freq2 0 \, velocity_filter_env 0 \, velocity_filter_decay
0 \, velocity_mix 0 \, velocity_attack 0;
#X connect 0 0 2 0;
#X connect 2 0 3 0;
#X connect 3 0 1 0;
#X restore 135 280 pd \$0-default;
#X msg 256 198 vis 1;
#X obj 256 218 s pd-\$0-open_dialog;
#X obj 256 158 sel 1;
#X text 16 119 See Presets ->;
#X msg 298 198 vis 0;
#X obj 298 175 b;
#N canvas 397 36 140 161 init 0;
#X obj 10 30 t b b b b b;
#X obj 10 5 loadbang;
#X obj 73 55 s \$0-init1;
#X obj 57 75 s \$0-init2;
#X obj 41 95 s \$0-init3;
#X obj 25 115 s \$0-init4;
#X obj 10 135 s \$0-init5;
#X connect 0 0 6 0;
#X connect 0 1 5 0;
#X connect 0 2 4 0;
#X connect 0 3 3 0;
#X connect 0 4 2 0;
#X connect 1 0 0 0;
#X restore 90 -33 pd init;
#N canvas 835 458 196 175 alert 0;
#X obj 5 4 inlet;
#X obj 5 26 sel 1;
#X obj 5 137 s \$0-alert;
#X obj 5 111 lprepend label;
#X msg 32 86 symbol;
#X msg 5 57 ERROR!_No_such_preset_exists.;
#X connect 0 0 1 0;
#X connect 1 0 5 0;
#X connect 1 1 4 0;
#X connect 3 0 2 0;
#X connect 4 0 3 0;
#X connect 5 0 3 0;
#X restore 238 178 pd alert;
#X connect 0 0 7 0;
#X connect 2 0 4 0;
#X connect 3 0 4 0;
#X connect 4 0 5 0;
#X connect 5 0 7 0;
#X connect 6 0 7 0;
#X connect 7 0 14 0;
#X connect 7 1 10 0;
#X connect 7 2 20 0;
#X connect 7 2 25 0;
#X connect 10 0 9 0;
#X connect 16 0 5 1;
#X connect 17 0 14 0;
#X connect 18 0 19 0;
#X connect 20 0 18 0;
#X connect 20 1 23 0;
#X connect 22 0 19 0;
#X connect 23 0 22 0;
