#N canvas 855 23 469 625 10;
#X obj 20 16 inlet;
#X obj 24 575 outlet;
#X msg 20 93 osc2 wave \$1-sine_table;
#X msg 35 113 osc2 wave \$1-triangle_table;
#X msg 51 132 osc2 wave \$1-sawtooth_table;
#X msg 67 151 osc2 wave \$1-square_table;
#X msg 85 170 osc2 wave \$1-5_table;
#X msg 100 191 osc2 wave \$1-6_table;
#X msg 111 213 osc2 wave \$1-7_table;
#X msg 127 233 osc2 wave \$1-8_table;
#X msg 140 253 osc2 wave \$1-9_table;
#X msg 152 272 osc2 wave \$1-10_table;
#X msg 167 291 osc2 wave \$1-11_table;
#X msg 183 312 osc2 wave \$1-12_table;
#X msg 196 331 osc2 wave \$1-13_table;
#X msg 208 352 osc2 wave \$1-14_table;
#X msg 220 372 osc2 wave \$1-15_table;
#X msg 233 394 osc2 wave \$1-16_table;
#X msg 247 414 osc2 wave \$1-17_table;
#X msg 255 436 osc2 wave \$1-18_table;
#X msg 270 456 osc2 wave \$1-19_table;
#X msg 282 476 osc2 wave \$1-20_table;
#X msg 293 496 osc2 wave \$1-21_table;
#X obj 20 37 route 0 1 2 3 4 5 6 7 8 9 10 11 12 13 14 15 16 17 18 19
20;
#X connect 0 0 23 0;
#X connect 2 0 1 0;
#X connect 3 0 1 0;
#X connect 4 0 1 0;
#X connect 5 0 1 0;
#X connect 6 0 1 0;
#X connect 7 0 1 0;
#X connect 8 0 1 0;
#X connect 9 0 1 0;
#X connect 10 0 1 0;
#X connect 11 0 1 0;
#X connect 12 0 1 0;
#X connect 13 0 1 0;
#X connect 14 0 1 0;
#X connect 15 0 1 0;
#X connect 16 0 1 0;
#X connect 17 0 1 0;
#X connect 18 0 1 0;
#X connect 19 0 1 0;
#X connect 20 0 1 0;
#X connect 21 0 1 0;
#X connect 22 0 1 0;
#X connect 23 0 2 0;
#X connect 23 1 3 0;
#X connect 23 2 4 0;
#X connect 23 3 5 0;
#X connect 23 4 6 0;
#X connect 23 5 7 0;
#X connect 23 6 8 0;
#X connect 23 7 9 0;
#X connect 23 8 10 0;
#X connect 23 9 11 0;
#X connect 23 10 12 0;
#X connect 23 11 13 0;
#X connect 23 12 14 0;
#X connect 23 13 15 0;
#X connect 23 14 16 0;
#X connect 23 15 17 0;
#X connect 23 16 18 0;
#X connect 23 17 19 0;
#X connect 23 18 20 0;
#X connect 23 19 21 0;
#X connect 23 20 22 0;
