#N canvas 650 98 427 558 10;
#X obj 21 19 inlet;
#X obj 21 513 outlet;
#X msg 21 96 osc1 wave \$1-sine_table;
#X msg 36 116 osc1 wave \$1-triangle_table;
#X msg 52 135 osc1 wave \$1-sawtooth_table;
#X msg 68 154 osc1 wave \$1-square_table;
#X msg 84 173 osc1 wave \$1-5_table;
#X msg 99 193 osc1 wave \$1-6_table;
#X msg 111 213 osc1 wave \$1-7_table;
#X msg 125 233 osc1 wave \$1-8_table;
#X msg 136 255 osc1 wave \$1-9_table;
#X msg 149 275 osc1 wave \$1-10_table;
#X msg 161 295 osc1 wave \$1-11_table;
#X msg 170 315 osc1 wave \$1-12_table;
#X msg 181 334 osc1 wave \$1-13_table;
#X msg 189 355 osc1 wave \$1-14_table;
#X msg 199 375 osc1 wave \$1-15_table;
#X msg 211 395 osc1 wave \$1-16_table;
#X msg 224 415 osc1 wave \$1-17_table;
#X obj 21 40 route 0 1 2 3 4 5 6 7 8 9 10 11 12 13 14 15 16 17 18 19
20;
#X msg 239 434 osc1 wave \$1-18_table;
#X msg 254 454 osc1 wave \$1-19_table;
#X msg 266 474 osc1 wave \$1-20_table;
#X msg 277 494 osc1 wave \$1-21_table;
#X connect 0 0 19 0;
#X connect 2 0 1 0;
#X connect 3 0 1 0;
#X connect 4 0 1 0;
#X connect 5 0 1 0;
#X connect 6 0 1 0;
#X connect 7 0 1 0;
#X connect 8 0 1 0;
#X connect 9 0 1 0;
#X connect 10 0 1 0;
#X connect 11 0 1 0;
#X connect 12 0 1 0;
#X connect 13 0 1 0;
#X connect 14 0 1 0;
#X connect 15 0 1 0;
#X connect 16 0 1 0;
#X connect 17 0 1 0;
#X connect 18 0 1 0;
#X connect 19 0 2 0;
#X connect 19 1 3 0;
#X connect 19 2 4 0;
#X connect 19 3 5 0;
#X connect 19 4 6 0;
#X connect 19 5 7 0;
#X connect 19 6 8 0;
#X connect 19 7 9 0;
#X connect 19 8 10 0;
#X connect 19 9 11 0;
#X connect 19 10 12 0;
#X connect 19 11 13 0;
#X connect 19 12 14 0;
#X connect 19 13 15 0;
#X connect 19 14 16 0;
#X connect 19 15 17 0;
#X connect 19 16 18 0;
#X connect 19 17 20 0;
#X connect 19 18 21 0;
#X connect 19 19 22 0;
#X connect 19 20 23 0;
#X connect 20 0 1 0;
#X connect 21 0 1 0;
#X connect 22 0 1 0;
#X connect 23 0 1 0;
