#N canvas 0 22 1147 130 10;
#X msg 19 -50 note \$1 \$2;
#X obj 19 -5 outlet~;
#N canvas 469 355 703 265 mod 0;
#X obj -740 75 r \$0-mod_filter_freq;
#X msg -740 111 mod filter_freq \$1;
#X obj -601 73 r \$0-mod_filter_res;
#X msg -601 111 mod filter_res \$1;
#X obj -475 73 r \$0-mod_phase;
#X msg -475 111 mod phase \$1;
#X obj -379 73 r \$0-mod_fm;
#X msg -379 111 mod fm \$1;
#X obj -292 71 r \$0-mod_lfo;
#X msg -292 109 mod lfo \$1;
#X obj -667 175 outlet;
#X obj -503 152 r \$0-mod;
#X msg -503 172 mod amt \$1;
#X connect 0 0 1 0;
#X connect 1 0 10 0;
#X connect 2 0 3 0;
#X connect 3 0 10 0;
#X connect 4 0 5 0;
#X connect 5 0 10 0;
#X connect 6 0 7 0;
#X connect 7 0 10 0;
#X connect 8 0 9 0;
#X connect 9 0 10 0;
#X connect 11 0 12 0;
#X connect 12 0 10 0;
#X restore 244 -47 pd mod;
#N canvas 420 461 611 234 noise 0;
#X obj -73 73 r \$0-noise;
#X obj 317 112 r \$0-noise_decay;
#X msg 317 133 noise decay \$1;
#X msg -73 94 noise on \$1;
#X obj 75 72 r \$0-noise_color;
#X msg 75 93 noise color \$1;
#X obj 281 68 r \$0-noise_level;
#X msg 281 89 noise level \$1;
#X obj 122 166 outlet;
#X connect 0 0 3 0;
#X connect 1 0 2 0;
#X connect 2 0 8 0;
#X connect 3 0 8 0;
#X connect 4 0 5 0;
#X connect 5 0 8 0;
#X connect 6 0 7 0;
#X connect 7 0 8 0;
#X restore 438 -47 pd noise;
#N canvas 514 328 450 300 pitchbend 0;
#X obj -17 60 r \$0-range;
#X msg -18 80 pitchbend_range \$1;
#X msg 172 80 pitchbend \$1;
#X obj 172 59 r \$0-bend;
#X obj 26 105 outlet;
#X connect 0 0 1 0;
#X connect 1 0 4 0;
#X connect 2 0 4 0;
#X connect 3 0 2 0;
#X restore 165 -47 pd pitchbend;
#N canvas 299 448 883 310 osc1 0;
#X obj 23 5 r \$0-osc1_phase;
#X msg 23 24 osc1 phase \$1;
#X obj 217 1 r \$0-set_osc1_o;
#X msg 217 22 osc1 mode o;
#X msg 519 27 osc1 mode -;
#X obj 519 6 r \$0-set_osc1_-;
#X obj 580 46 r \$0-osc1_waveform;
#X obj 396 69 r \$0-osc1_oct;
#X msg 396 90 osc1 oct \$1;
#X obj 25 59 r \$0-osc1_semi;
#X msg 25 80 osc1 semi \$1;
#X obj 211 55 r \$0-osc1_cent;
#X msg 211 76 osc1 cent \$1;
#X obj 72 117 outlet;
#X obj 401 14 r \$0-set_osc1_x;
#X msg 401 35 osc1 mode x;
#X obj 580 68 pack 0 \$0;
#X obj 580 90 Subtractor-osc1_waves;
#X connect 0 0 1 0;
#X connect 1 0 13 0;
#X connect 2 0 3 0;
#X connect 3 0 13 0;
#X connect 4 0 13 0;
#X connect 5 0 4 0;
#X connect 6 0 16 0;
#X connect 7 0 8 0;
#X connect 8 0 13 0;
#X connect 9 0 10 0;
#X connect 10 0 13 0;
#X connect 11 0 12 0;
#X connect 12 0 13 0;
#X connect 14 0 15 0;
#X connect 15 0 13 0;
#X connect 16 0 17 0;
#X connect 17 0 13 0;
#X restore 342 -47 pd osc1;
#N canvas 703 361 450 300 other 0;
#X obj 35 -7 r \$0-fm;
#X msg 35 14 fm \$1;
#X obj 316 -10 r \$0-mix;
#X msg 316 11 mix \$1;
#X msg 147 14 ringmod \$1;
#X obj 168 54 outlet;
#X obj 147 -7 r \$0-ring_mod;
#X connect 0 0 1 0;
#X connect 1 0 5 0;
#X connect 2 0 3 0;
#X connect 3 0 5 0;
#X connect 4 0 5 0;
#X connect 6 0 4 0;
#X restore 287 -47 pd other;
#N canvas 60 36 1000 749 lfo1 0;
#X obj -6 8 r \$0-set_lfo1_triangle;
#X obj -6 46 f \$0;
#X obj -6 86 r \$0-set_lfo1_saw;
#X obj -6 200 f \$0;
#X obj -6 162 r \$0-set_lfo1_saw2;
#X obj -6 275 f \$0;
#X obj -6 238 r \$0-set_lfo1_square;
#X obj -6 352 f \$0;
#X obj -6 314 r \$0-set_lfo1_random;
#X obj -6 429 f \$0;
#X obj -6 391 r \$0-set_lfo1_random2;
#X obj -6 -236 r \$0-set_lfo1_phase;
#X msg -6 -215 lfo1 dest phase;
#X obj 591 437 r \$0-lfo1_sync;
#X obj 402 440 r \$0-lfo1_rate;
#X msg 402 460 lfo1 rate \$1;
#X msg 591 457 lfo1 sync \$1;
#X msg -6 65 lfo1 wave \$1-triangle_table;
#X msg -6 295 lfo1 wave \$1-square_table;
#X msg -6 219 lfo1 wave \$1-inverse_sawtooth_table;
#X msg -6 143 lfo1 wave \$1-sawtooth_table;
#X msg -6 371 lfo1 wave \$1-random_table;
#X msg -6 448 lfo1 wave \$1-random2_table;
#X obj -6 124 f \$0;
#X obj -6 105 bng 15 250 50 0 empty empty empty 17 7 0 10 -262144 -1
-1;
#X obj -6 181 bng 15 250 50 0 empty empty empty 17 7 0 10 -262144 -1
-1;
#X obj -6 257 bng 15 250 50 0 empty empty empty 17 7 0 10 -262144 -1
-1;
#X obj -6 27 bng 15 250 50 0 empty empty empty 17 7 0 10 -262144 -1
-1;
#X obj -6 333 bng 15 250 50 0 empty empty empty 17 7 0 10 -262144 -1
-1;
#X obj -6 410 bng 15 250 50 0 empty empty empty 17 7 0 10 -262144 -1
-1;
#X msg -6 -174 lfo1 dest mix;
#X obj -6 -195 r \$0-set_lfo1_mix;
#X obj -6 -154 r \$0-set_lfo1_fm;
#X msg -6 -133 lfo1 dest fm;
#X obj -6 -113 r \$0-set_lfo1_filter_freq;
#X msg -6 -92 lfo1 dest filter_freq;
#X obj -6 477 outlet;
#X obj -6 -72 r \$0-set_lfo1_osc2;
#X msg -6 -51 lfo1 dest osc2;
#X obj -6 -32 r \$0-set_lfo1_osc12;
#X msg -6 -11 lfo1 dest osc12;
#X obj 187 440 r \$0-lfo1_amount;
#X msg 187 460 lfo1 amount \$1;
#X connect 0 0 27 0;
#X connect 1 0 17 0;
#X connect 2 0 24 0;
#X connect 3 0 19 0;
#X connect 4 0 25 0;
#X connect 5 0 18 0;
#X connect 6 0 26 0;
#X connect 7 0 21 0;
#X connect 8 0 28 0;
#X connect 9 0 22 0;
#X connect 10 0 29 0;
#X connect 11 0 12 0;
#X connect 12 0 36 0;
#X connect 13 0 16 0;
#X connect 14 0 15 0;
#X connect 15 0 36 0;
#X connect 17 0 36 0;
#X connect 18 0 36 0;
#X connect 19 0 36 0;
#X connect 20 0 36 0;
#X connect 21 0 36 0;
#X connect 22 0 36 0;
#X connect 23 0 20 0;
#X connect 24 0 23 0;
#X connect 25 0 3 0;
#X connect 26 0 5 0;
#X connect 27 0 1 0;
#X connect 28 0 7 0;
#X connect 29 0 9 0;
#X connect 30 0 36 0;
#X connect 31 0 30 0;
#X connect 32 0 33 0;
#X connect 33 0 36 0;
#X connect 34 0 35 0;
#X connect 35 0 36 0;
#X connect 37 0 38 0;
#X connect 38 0 36 0;
#X connect 39 0 40 0;
#X connect 40 0 36 0;
#X connect 41 0 42 0;
#X connect 42 0 36 0;
#X restore 492 -47 pd lfo1;
#N canvas 285 448 974 158 osc2 0;
#X obj 73 113 outlet;
#X obj 24 1 r \$0-osc2_phase;
#X obj 218 -3 r \$0-set_osc2_o;
#X obj 26 55 r \$0-osc2_semi;
#X msg 24 20 osc2 phase \$1;
#X msg 26 76 osc2 semi \$1;
#X msg 218 18 osc2 mode o;
#X obj 212 51 r \$0-osc2_cent;
#X msg 212 72 osc2 cent \$1;
#X obj 397 65 r \$0-osc2_oct;
#X msg 397 86 osc2 oct \$1;
#X msg 520 23 osc2 mode -;
#X obj 520 2 r \$0-set_osc2_-;
#X obj 581 43 r \$0-osc2_waveform;
#X obj 814 65 r \$0-osc2;
#X msg 814 84 osc2 on \$1;
#X obj 402 10 r \$0-set_osc2_x;
#X msg 402 31 osc2 mode x;
#X obj 581 65 pack 0 \$0;
#X obj 581 86 Subtractor-osc2_waves;
#X connect 1 0 4 0;
#X connect 2 0 6 0;
#X connect 3 0 5 0;
#X connect 4 0 0 0;
#X connect 5 0 0 0;
#X connect 6 0 0 0;
#X connect 7 0 8 0;
#X connect 8 0 0 0;
#X connect 9 0 10 0;
#X connect 10 0 0 0;
#X connect 11 0 0 0;
#X connect 12 0 11 0;
#X connect 13 0 18 0;
#X connect 14 0 15 0;
#X connect 15 0 0 0;
#X connect 16 0 17 0;
#X connect 17 0 0 0;
#X connect 18 0 19 0;
#X connect 19 0 0 0;
#X restore 390 -47 pd osc2;
#N canvas 150 40 795 392 mod_env 0;
#X obj 18 38 r \$0-mod_env_a;
#X obj 18 136 outlet;
#X msg 18 57 mod_env a \$1;
#X obj 207 38 r \$0-mod_env_d;
#X msg 207 57 mod_env d \$1;
#X obj 395 38 r \$0-mod_env_s;
#X msg 395 57 mod_env s \$1;
#X obj 584 38 r \$0-mod_env_r;
#X msg 584 57 mod_env r \$1;
#X obj 28 79 r \$0-mod_env_amt;
#X msg 28 98 mod_env amt \$1;
#X obj 228 79 r \$0-mod_env_inv;
#X msg 228 98 mod_env inv \$1;
#X obj 18 -221 r \$0-set_mod_env_osc1;
#X msg 18 -200 mod_env dest osc1;
#X obj 18 -180 r \$0-set_mod_env_osc2;
#X msg 18 -159 mod_env dest osc2;
#X msg 18 -118 mod_env dest filter_freq2;
#X obj 18 -139 r \$0-set_mod_env_filter_freq2;
#X obj 18 -98 r \$0-set_mod_env_fm;
#X msg 18 -77 mod_env dest fm;
#X obj 18 -57 r \$0-set_mod_env_phase;
#X msg 18 -36 mod_env dest phase;
#X obj 18 -17 r \$0-set_mod_env_mix;
#X msg 18 4 mod_env dest mix;
#X connect 0 0 2 0;
#X connect 2 0 1 0;
#X connect 3 0 4 0;
#X connect 4 0 1 0;
#X connect 5 0 6 0;
#X connect 6 0 1 0;
#X connect 7 0 8 0;
#X connect 8 0 1 0;
#X connect 9 0 10 0;
#X connect 10 0 1 0;
#X connect 11 0 12 0;
#X connect 12 0 1 0;
#X connect 13 0 14 0;
#X connect 14 0 1 0;
#X connect 15 0 16 0;
#X connect 16 0 1 0;
#X connect 17 0 1 0;
#X connect 18 0 17 0;
#X connect 19 0 20 0;
#X connect 20 0 1 0;
#X connect 21 0 22 0;
#X connect 22 0 1 0;
#X connect 23 0 24 0;
#X connect 24 0 1 0;
#X restore 541 -47 pd mod_env;
#N canvas 419 460 955 293 lfo2 0;
#X obj 16 224 outlet;
#X obj 16 12 r \$0-set_lfo2_osc12;
#X msg 16 32 lfo2 dest osc12;
#X obj 16 51 r \$0-set_lfo2_phase;
#X msg 16 71 lfo2 dest phase;
#X msg 16 110 lfo2 dest filter_freq2;
#X obj 16 90 r \$0-set_lfo2_filter_freq2;
#X obj 16 129 r \$0-set_lfo2_amp;
#X msg 16 149 lfo2 dest amp;
#X obj 78 187 r \$0-lfo2_rate;
#X msg 78 207 lfo2 rate \$1;
#X obj 264 187 r \$0-lfo2_amount;
#X msg 264 207 lfo2 amount \$1;
#X obj 476 187 r \$0-lfo2_kbd;
#X msg 476 207 lfo2 kbd \$1;
#X obj 662 187 r \$0-lfo2_delay;
#X msg 662 207 lfo2 delay \$1;
#X connect 1 0 2 0;
#X connect 2 0 0 0;
#X connect 3 0 4 0;
#X connect 4 0 0 0;
#X connect 5 0 0 0;
#X connect 6 0 5 0;
#X connect 7 0 8 0;
#X connect 8 0 0 0;
#X connect 9 0 10 0;
#X connect 10 0 0 0;
#X connect 11 0 12 0;
#X connect 12 0 0 0;
#X connect 13 0 14 0;
#X connect 14 0 0 0;
#X connect 15 0 16 0;
#X connect 16 0 0 0;
#X restore 607 -47 pd lfo2;
#N canvas 792 408 572 416 filter1 0;
#X obj 14 24 r \$0-filter_freq;
#X msg 14 44 filter freq \$1;
#X obj 14 63 r \$0-filter_res;
#X msg 14 83 filter res \$1;
#X obj 14 359 outlet;
#X obj 14 103 r \$0-set_filter_notch;
#X msg 14 123 filter type notch;
#X obj 14 142 r \$0-set_filter_hp;
#X msg 14 162 filter type hp;
#X obj 14 181 r \$0-set_filter_bp;
#X msg 14 201 filter type bp;
#X obj 14 222 r \$0-set_filter_lp;
#X msg 14 242 filter type lp;
#X msg 14 282 filter type lp24;
#X obj 14 262 r \$0-set_filter_lp24;
#X obj 75 322 r \$0-filter_freq;
#X msg 75 342 filter freq \$1;
#X obj 291 322 r \$0-filter_link;
#X msg 291 342 filter link \$1;
#X connect 0 0 1 0;
#X connect 1 0 4 0;
#X connect 2 0 3 0;
#X connect 3 0 4 0;
#X connect 5 0 6 0;
#X connect 6 0 4 0;
#X connect 7 0 8 0;
#X connect 8 0 4 0;
#X connect 9 0 10 0;
#X connect 10 0 4 0;
#X connect 11 0 12 0;
#X connect 12 0 4 0;
#X connect 13 0 4 0;
#X connect 14 0 13 0;
#X connect 15 0 16 0;
#X connect 16 0 4 0;
#X connect 17 0 18 0;
#X connect 18 0 4 0;
#X restore 655 -47 pd filter1;
#N canvas 918 372 450 300 filter2 0;
#X obj 6 12 r \$0-filter2;
#X obj 6 183 outlet;
#X msg 6 32 filter on2 \$1;
#X obj 6 52 r \$0-filter_freq2;
#X msg 6 72 filter freq2 \$1;
#X obj 6 93 r \$0-filter_res2;
#X msg 6 113 filter res2 \$1;
#X connect 0 0 2 0;
#X connect 2 0 1 0;
#X connect 3 0 4 0;
#X connect 4 0 1 0;
#X connect 5 0 6 0;
#X connect 6 0 1 0;
#X restore 721 -47 pd filter2;
#N canvas 651 382 320 308 filter_env 0;
#X obj 18 18 r \$0-filter_env_a;
#X msg 18 37 filter_env a \$1;
#X obj 18 253 outlet;
#X obj 18 57 r \$0-filter_env_d;
#X msg 18 76 filter_env d \$1;
#X msg 18 114 filter_env s \$1;
#X obj 18 95 r \$0-filter_env_s;
#X obj 18 134 r \$0-filter_env_r;
#X msg 18 153 filter_env r \$1;
#X obj 18 173 r \$0-filter_env_amt;
#X msg 18 192 filter_env amt \$1;
#X obj 18 212 r \$0-filter_env_inv;
#X msg 18 231 filter_env inv \$1;
#X connect 0 0 1 0;
#X connect 1 0 2 0;
#X connect 3 0 4 0;
#X connect 4 0 2 0;
#X connect 5 0 2 0;
#X connect 6 0 5 0;
#X connect 7 0 8 0;
#X connect 8 0 2 0;
#X connect 9 0 10 0;
#X connect 10 0 2 0;
#X connect 11 0 12 0;
#X connect 12 0 2 0;
#X restore 787 -47 pd filter_env;
#N canvas 703 381 450 300 amp_env 0;
#X obj 17 7 r \$0-amp_env_a;
#X msg 17 27 amp_env a \$1;
#X obj 17 222 outlet;
#X obj 17 46 r \$0-amp_env_d;
#X msg 17 66 amp_env d \$1;
#X msg 17 105 amp_env s \$1;
#X obj 17 85 r \$0-amp_env_s;
#X obj 17 124 r \$0-amp_env_r;
#X msg 17 144 amp_env r \$1;
#X connect 0 0 1 0;
#X connect 1 0 2 0;
#X connect 3 0 4 0;
#X connect 4 0 2 0;
#X connect 5 0 2 0;
#X connect 6 0 5 0;
#X connect 7 0 8 0;
#X connect 8 0 2 0;
#X restore 872 -47 pd amp_env;
#N canvas 37 62 356 409 velocity 0;
#X obj 14 12 r \$0-velocity_amp;
#X msg 14 32 velocity amp \$1;
#X obj 14 378 outlet;
#X obj 14 51 r \$0-velocity_fm;
#X msg 14 71 velocity fm \$1;
#X obj 14 91 r \$0-velocity_mod_env;
#X msg 14 111 velocity mod_env \$1;
#X obj 14 130 r \$0-velocity_phase;
#X msg 14 150 velocity phase \$1;
#X obj 14 169 r \$0-velocity_freq2;
#X msg 14 189 velocity freq2 \$1;
#X obj 14 208 r \$0-velocity_filter_env;
#X msg 14 228 velocity filter_env \$1;
#X obj 14 248 r \$0-velocity_filter_decay;
#X msg 14 268 velocity filter_decay \$1;
#X obj 14 287 r \$0-velocity_mix;
#X msg 14 307 velocity mix \$1;
#X obj 14 328 r \$0-velocity_attack;
#X msg 14 348 velocity attack \$1;
#X connect 0 0 1 0;
#X connect 1 0 2 0;
#X connect 3 0 4 0;
#X connect 4 0 2 0;
#X connect 5 0 6 0;
#X connect 6 0 2 0;
#X connect 7 0 8 0;
#X connect 8 0 2 0;
#X connect 9 0 10 0;
#X connect 10 0 2 0;
#X connect 11 0 12 0;
#X connect 12 0 2 0;
#X connect 13 0 14 0;
#X connect 14 0 2 0;
#X connect 15 0 16 0;
#X connect 16 0 2 0;
#X connect 17 0 18 0;
#X connect 18 0 2 0;
#X restore 939 -47 pd velocity;
#X obj 19 -30 Subtractor-voice;
#X obj 19 -74 inlet;
#X connect 0 0 16 0;
#X connect 2 0 16 0;
#X connect 3 0 16 0;
#X connect 4 0 16 0;
#X connect 5 0 16 0;
#X connect 6 0 16 0;
#X connect 7 0 16 0;
#X connect 8 0 16 0;
#X connect 9 0 16 0;
#X connect 10 0 16 0;
#X connect 11 0 16 0;
#X connect 12 0 16 0;
#X connect 13 0 16 0;
#X connect 14 0 16 0;
#X connect 15 0 16 0;
#X connect 16 0 1 0;
#X connect 17 0 0 0;
