#N canvas 578 23 845 577 10;
#X obj -366 77 rfft~;
#X obj -366 110 *~;
#X obj -335 110 *~;
#X obj -366 135 sqrt~;
#X obj -366 211 biquad~ 0 0 0 0 1;
#X text -330 78 Fourier series;
#X text -303 113 magnitude;
#X text -305 103 calculate;
#X text -387 -71 signal to analyze;
#X text -357 178 delay two samples;
#X text -358 190 for better graphing;
#X obj -161 297 metro;
#X obj -161 279 tgl 15 0 empty empty empty 17 7 0 10 -262144 -1 -1
1 1;
#X obj -134 251 loadbang;
#X obj 42 138 / 2;
#X obj 42 91 / 2;
#X obj 42 41 t b f;
#X obj 42 18 * 1;
#X text -138 -70 Gain Control (Graph Only);
#X text 50 -86 Resize Factor;
#X text 167 198 In General:;
#X text 26 -72 Zooms in Low Freqs;
#X obj -366 -51 inlet~ SIGNAL;
#X obj -125 -53 inlet GRAPH_GAIN;
#X obj 50 -53 inlet ZOOM;
#X text 190 229 10.7 Hz = 44100 / 4096;
#X obj 173 -49 inlet SET_TABLE;
#X text 163 -74 Set Graphing to another table;
#X text 101 253 See: https://en.wikipedia.org/wiki/Fast_Fourier_transform
;
#X obj 26 162 t b f;
#X msg 6 306 add;
#X msg 22 284 set;
#X obj -10 363 ladd2;
#X obj 53 358 list prepend resize;
#X obj -41 240 bng 15 250 50 0 empty empty empty 17 7 0 10 -262144
-1 -1;
#X obj -26 424 ladd;
#X obj -41 259 t b b b b b;
#X obj -26 389 list;
#X obj -2 342 list;
#X obj -248 -54 inlet BLOCK_SIZE;
#X text -237 -69 FFT Size;
#X obj -176 -33 loadbang;
#X obj -128 55 dollarg;
#X obj -127 79 list split 1;
#X obj -107 102 lfl!= 0;
#X obj -189 103 lfl!= 0;
#X obj 342 -49 inlet FRAMERATE;
#X text 364 -67 Plot Rate;
#X text 128 147 Arguments: Array to write \, Number of points in FFT.
;
#X text 165 212 lowest_freq = sampling_rate / NFFT;
#X text 165 163 4096 -> Lowest Resolvable Freq: ~10 Hz;
#X text 165 176 2048 -> Lowest Resolvable Freq: ~21 Hz;
#X obj -189 193 list trim;
#X floatatom -231 152 5 0 0 0 - - -;
#X obj 42 65 f 4096;
#X obj 42 117 f 4096;
#X msg -109 124 set \$1 2 1;
#X obj -366 233 /~ 4096;
#X obj -366 369 tabwrite~;
#X obj -109 144 block~ 4096 1;
#X msg -134 273 0;
#X obj -12 8 f 1;
#X obj -34 49 t b f;
#X obj -237 32 t f b;
#X obj -366 292 -~ 1;
#X obj -366 268 *~ 10;
#X msg -200 309 1;
#X obj -204 235 t a b a;
#X msg -41 454 \; Spectrum resize 90.0616 \;;
#X msg 72 303 Spectrum;
#X msg -237 13 4096;
#X obj -175 -15 t b b b;
#X obj 294 302 r resize;
#X obj -366 53 *~;
#X obj -352 33 tabreceive~;
#X msg -24 -30 1;
#X obj -352 13 hann_table;
#X obj -237 56 clip 4 32768;
#X obj -352 -27 loadbang;
#X msg -352 -7 4096;
#X obj -189 168 list prepend set;
#X connect 0 0 1 0;
#X connect 0 0 1 1;
#X connect 0 1 2 0;
#X connect 0 1 2 1;
#X connect 1 0 3 0;
#X connect 2 0 3 0;
#X connect 3 0 4 0;
#X connect 4 0 57 0;
#X connect 11 0 58 0;
#X connect 12 0 11 0;
#X connect 13 0 12 0;
#X connect 13 0 60 0;
#X connect 14 0 29 0;
#X connect 15 0 55 0;
#X connect 16 0 54 0;
#X connect 16 1 15 1;
#X connect 17 0 16 0;
#X connect 22 0 73 0;
#X connect 23 0 65 1;
#X connect 24 0 61 0;
#X connect 26 0 38 1;
#X connect 26 0 80 0;
#X connect 29 0 34 0;
#X connect 29 1 33 0;
#X connect 30 0 68 0;
#X connect 31 0 68 0;
#X connect 32 0 68 0;
#X connect 33 0 37 1;
#X connect 34 0 36 0;
#X connect 35 0 68 0;
#X connect 36 0 68 0;
#X connect 36 1 37 0;
#X connect 36 2 38 0;
#X connect 36 3 30 0;
#X connect 36 4 31 0;
#X connect 37 0 35 0;
#X connect 38 0 32 0;
#X connect 39 0 77 0;
#X connect 41 0 71 0;
#X connect 42 0 43 0;
#X connect 43 0 45 0;
#X connect 43 1 44 0;
#X connect 44 0 56 0;
#X connect 44 0 54 1;
#X connect 44 0 55 1;
#X connect 44 0 57 1;
#X connect 45 0 38 1;
#X connect 45 0 80 0;
#X connect 46 0 11 1;
#X connect 52 0 67 0;
#X connect 53 0 56 0;
#X connect 53 0 57 1;
#X connect 53 0 62 0;
#X connect 53 0 76 0;
#X connect 54 0 15 0;
#X connect 55 0 14 0;
#X connect 56 0 59 0;
#X connect 57 0 65 0;
#X connect 60 0 11 1;
#X connect 61 0 17 0;
#X connect 62 0 61 0;
#X connect 62 1 54 1;
#X connect 62 1 55 1;
#X connect 63 0 77 0;
#X connect 63 1 69 0;
#X connect 64 0 58 0;
#X connect 65 0 64 0;
#X connect 66 0 61 0;
#X connect 67 0 58 0;
#X connect 67 1 66 0;
#X connect 67 2 69 0;
#X connect 69 0 38 1;
#X connect 70 0 63 0;
#X connect 71 0 70 0;
#X connect 71 2 42 0;
#X connect 73 0 0 0;
#X connect 74 0 73 1;
#X connect 75 0 61 0;
#X connect 76 0 74 0;
#X connect 77 0 53 0;
#X connect 78 0 79 0;
#X connect 79 0 76 0;
#X connect 80 0 52 0;
